<?xml version="1.0" encoding="UTF-8"?>
<!DOCTYPE svg PUBLIC "-//W3C//DTD SVG 1.1//EN" "http://www.w3.org/Graphics/SVG/1.1/DTD/svg11.dtd">
<svg xmlns="http://www.w3.org/2000/svg" version="1.1" width="1200px" height="1314px" style="shape-rendering:geometricPrecision; text-rendering:geometricPrecision; image-rendering:optimizeQuality; fill-rule:evenodd; clip-rule:evenodd" xmlns:xlink="http://www.w3.org/1999/xlink">
<g><path style="opacity:0.991" fill="#fe0000" d="M 584.5,9.5 C 629.64,7.65945 666.14,24.3261 694,59.5C 720.349,99.1701 724.682,141.17 707,185.5C 676.521,242.155 629.355,265.321 565.5,255C 523.272,243.776 493.772,217.943 477,177.5C 459.554,123.702 471.387,77.5357 512.5,39C 533.291,21.0976 557.291,11.2643 584.5,9.5 Z"/></g>
<g><path style="opacity:0.992" fill="#fe0000" d="M 811.5,277.5 C 812.5,277.5 813.5,277.5 814.5,277.5C 815.997,498.835 815.83,720.168 814,941.5C 742.988,914.996 672.155,887.996 601.5,860.5C 600.675,856.878 600.175,853.211 600,849.5C 598,689.167 598,528.833 600,368.5C 600.175,364.789 600.675,361.122 601.5,357.5C 671.677,331.001 741.677,304.335 811.5,277.5 Z"/></g>
<g><path style="opacity:0.982" fill="#ffcc00" d="M 146.5,278.5 C 164.907,283.636 182.907,289.969 200.5,297.5C 201.328,302.132 201.828,306.798 202,311.5C 202.167,408.167 202.333,504.833 202.5,601.5C 202.634,707.507 202.134,813.507 201,919.5C 200.5,920.667 199.667,921.5 198.5,922C 181.695,928.991 164.695,935.491 147.5,941.5C 146.719,940.271 146.219,938.938 146,937.5C 145.218,717.831 145.385,498.165 146.5,278.5 Z"/></g>
<g><path style="opacity:0.992" fill="#ff7e29" d="M 213.5,278.5 C 234.908,285.636 256.241,292.969 277.5,300.5C 277.968,505.507 277.468,710.507 276,915.5C 274.891,917.815 273.057,919.315 270.5,920C 250.989,927.669 231.323,934.836 211.5,941.5C 211.333,729.166 211.5,516.833 212,304.5C 212.195,295.756 212.695,287.089 213.5,278.5 Z"/></g>
<g><path style="opacity:0.989" fill="#ff6500" d="M 288.5,278.5 C 312.975,285.825 336.809,294.825 360,305.5C 361.131,412.16 361.631,518.826 361.5,625.5C 361.167,721.833 360.833,818.167 360.5,914.5C 336.655,923.893 312.655,932.893 288.5,941.5C 287.67,935.862 287.17,930.196 287,924.5C 286.333,716.833 286.333,509.167 287,301.5C 287.232,293.786 287.732,286.119 288.5,278.5 Z"/></g>
<g><path style="opacity:0.986" fill="#ff6500" d="M 895.5,278.5 C 896.822,278.33 897.989,278.663 899,279.5C 899.333,281.5 899.667,283.5 900,285.5C 901.025,352.662 901.525,419.829 901.5,487C 901.253,635.506 900.42,784.006 899,932.5C 898.882,935.371 898.216,938.038 897,940.5C 873.668,932.333 850.501,923.666 827.5,914.5C 825.492,711.169 825.159,507.836 826.5,304.5C 849.61,295.801 872.61,287.135 895.5,278.5 Z"/></g>
<g><path style="opacity:0.984" fill="#ff7e29" d="M 970.5,278.5 C 971.822,278.33 972.989,278.663 974,279.5C 974.333,281.833 974.667,284.167 975,286.5C 976.777,504.497 976.943,722.497 975.5,940.5C 953.999,934.222 932.999,926.555 912.5,917.5C 911.679,914.553 911.179,911.553 911,908.5C 909.415,706.17 909.081,503.837 910,301.5C 930.132,293.515 950.299,285.848 970.5,278.5 Z"/></g>
<g><path style="opacity:0.983" fill="#ffcc00" d="M 1036.5,278.5 C 1037.83,278.5 1039.17,278.5 1040.5,278.5C 1042.97,498.493 1043.14,718.493 1041,938.5C 1040.69,939.308 1040.19,939.975 1039.5,940.5C 1021.49,935.108 1003.99,928.441 987,920.5C 985.69,881.546 985.024,842.546 985,803.5C 984.505,634.831 985.005,466.164 986.5,297.5C 1003.11,290.745 1019.78,284.412 1036.5,278.5 Z"/></g>
<g><path style="opacity:0.993" fill="#fe0000" d="M 371.5,279.5 C 385.466,282.543 399.133,286.71 412.5,292C 470.513,313.426 528.347,335.259 586,357.5C 586.167,439.833 586.333,522.167 586.5,604.5C 586.653,690.185 586.153,775.852 585,861.5C 514.418,888.527 443.585,914.86 372.5,940.5C 371.993,720.167 371.66,499.834 371.5,279.5 Z"/></g>
<g><path style="opacity:0.908" fill="#00007f" d="M 364.5,1059.5 C 368.17,1059.33 370.67,1060.99 372,1064.5C 376.403,1073.3 380.236,1082.3 383.5,1091.5C 403.836,1091.67 424.169,1091.5 444.5,1091C 445.28,1089.93 445.113,1088.76 444,1087.5C 438.375,1081.21 433.541,1074.38 429.5,1067C 431.476,1060.56 434.976,1059.4 440,1063.5C 445.254,1072.34 450.254,1081.34 455,1090.5C 458.73,1091.46 462.563,1091.79 466.5,1091.5C 465.148,1082.44 467.148,1074.27 472.5,1067C 480.138,1062.39 487.805,1062.39 495.5,1067C 503.618,1074.11 510.618,1082.11 516.5,1091C 527.828,1091.5 539.162,1091.67 550.5,1091.5C 549.051,1082.38 551.051,1074.21 556.5,1067C 563.139,1062.54 569.806,1062.54 576.5,1067C 583.92,1074.42 590.587,1082.42 596.5,1091C 599.569,1089.89 602.402,1090.39 605,1092.5C 607.259,1098.44 605.093,1101.78 598.5,1102.5C 598.252,1118.68 598.586,1134.85 599.5,1151C 600.165,1156.19 598.165,1159.69 593.5,1161.5C 591.234,1161.07 589.734,1159.74 589,1157.5C 588.5,1138.84 588.333,1120.17 588.5,1101.5C 581.633,1101.74 574.8,1101.41 568,1100.5C 565.237,1100.92 562.57,1101.58 560,1102.5C 558.047,1105.26 558.213,1107.76 560.5,1110C 576.367,1108.2 583.201,1115.37 581,1131.5C 579.451,1137.48 577.118,1143.14 574,1148.5C 569.907,1152.55 566.741,1151.88 564.5,1146.5C 567.856,1139.95 570.523,1133.12 572.5,1126C 572.695,1120.86 570.362,1118.53 565.5,1119C 562.769,1121.63 560.936,1124.79 560,1128.5C 559.667,1138.83 559.333,1149.17 559,1159.5C 556.778,1162.04 554.611,1162.04 552.5,1159.5C 551.557,1154.9 551.223,1150.23 551.5,1145.5C 540.651,1147.83 533.484,1143.83 530,1133.5C 527.476,1123.4 530.309,1115.24 538.5,1109C 545.509,1106.07 549.009,1108.24 549,1115.5C 540.935,1117.29 537.602,1122.29 539,1130.5C 542.137,1137.92 545.804,1138.25 550,1131.5C 552.685,1121.87 553.019,1112.2 551,1102.5C 549.333,1101.83 547.667,1101.17 546,1100.5C 537.22,1101.27 528.387,1101.94 519.5,1102.5C 519.667,1121.17 519.5,1139.84 519,1158.5C 516.556,1162.18 513.556,1162.51 510,1159.5C 510.287,1140.18 510.454,1120.85 510.5,1101.5C 506.97,1100.99 503.804,1101.66 501,1103.5C 500.826,1114.87 500.159,1126.2 499,1137.5C 498.311,1138.36 497.478,1139.02 496.5,1139.5C 490.156,1135.49 486.156,1129.82 484.5,1122.5C 484.442,1118.06 486.608,1115.73 491,1115.5C 495.161,1102.33 490.828,1097.99 478,1102.5C 477.028,1121.47 476.362,1140.47 476,1159.5C 473.619,1160.44 471.119,1160.77 468.5,1160.5C 468.419,1141.16 467.919,1121.82 467,1102.5C 464,1099.83 461,1099.83 458,1102.5C 457.891,1121.53 457.224,1140.53 456,1159.5C 453.237,1162.29 450.903,1161.95 449,1158.5C 448.5,1139.5 448.333,1120.5 448.5,1101.5C 444.493,1099.94 440.659,1100.27 437,1102.5C 436.667,1121.5 436.333,1140.5 436,1159.5C 434.155,1161.35 432.155,1161.68 430,1160.5C 428.691,1155.93 428.191,1151.27 428.5,1146.5C 424.437,1148.37 420.437,1150.53 416.5,1153C 407.457,1156.43 400.624,1153.93 396,1145.5C 394.876,1139.9 394.21,1134.23 394,1128.5C 387.042,1112.26 392.542,1104.59 410.5,1105.5C 410.64,1103.88 409.973,1102.71 408.5,1102C 399.226,1100 390.059,1100.16 381,1102.5C 381.386,1120.49 381.386,1138.49 381,1156.5C 378.333,1163.17 375.667,1163.17 373,1156.5C 372.5,1138.17 372.333,1119.84 372.5,1101.5C 369.09,1100.06 365.923,1100.4 363,1102.5C 361.578,1121.79 361.078,1141.13 361.5,1160.5C 358.289,1160.99 355.456,1160.32 353,1158.5C 352.952,1151.79 352.786,1145.12 352.5,1138.5C 345.678,1145.49 339.011,1152.66 332.5,1160C 325.956,1159.1 324.122,1155.6 327,1149.5C 330.145,1146.27 333.478,1143.27 337,1140.5C 337.167,1139.83 337.333,1139.17 337.5,1138.5C 335.766,1134.03 333.266,1130.03 330,1126.5C 329.5,1118.51 329.334,1110.51 329.5,1102.5C 327.173,1102.75 325.173,1102.09 323.5,1100.5C 322.593,1097.58 322.26,1094.58 322.5,1091.5C 335.837,1091.67 349.171,1091.5 362.5,1091C 362.833,1090.67 363.167,1090.33 363.5,1090C 360.948,1087.15 358.115,1084.65 355,1082.5C 354.581,1073.68 357.581,1072.35 364,1078.5C 366.783,1082.95 369.95,1087.12 373.5,1091C 374.167,1091.67 374.833,1091.67 375.5,1091C 371.391,1083.28 366.891,1075.78 362,1068.5C 361.333,1067.17 361.333,1065.83 362,1064.5C 363.094,1062.92 363.928,1061.26 364.5,1059.5 Z M 481.5,1074.5 C 485.719,1073.98 489.386,1075.15 492.5,1078C 496.535,1081.7 500.202,1085.7 503.5,1090C 494.662,1091.63 485.662,1091.97 476.5,1091C 473.987,1084.09 475.653,1078.59 481.5,1074.5 Z M 564.5,1074.5 C 573.003,1076.82 579.336,1081.99 583.5,1090C 575.925,1093.09 568.258,1093.09 560.5,1090C 558.139,1083.95 559.472,1078.78 564.5,1074.5 Z M 422.5,1100.5 C 423.93,1100.42 425.264,1100.75 426.5,1101.5C 427.666,1112.15 427.832,1122.82 427,1133.5C 422.759,1138.2 417.592,1141.2 411.5,1142.5C 403.578,1142.14 401.911,1138.98 406.5,1133C 409.167,1132.33 411.833,1131.67 414.5,1131C 417.129,1127.8 416.796,1124.8 413.5,1122C 409.76,1121.92 406.093,1122.26 402.5,1123C 399.913,1121.47 399.08,1119.31 400,1116.5C 406.018,1114.18 412.185,1113.85 418.5,1115.5C 418.335,1112.15 418.502,1108.82 419,1105.5C 419.257,1103.09 420.424,1101.43 422.5,1100.5 Z M 340.5,1101.5 C 344.182,1101.33 347.848,1101.5 351.5,1102C 353.863,1109.47 353.696,1116.97 351,1124.5C 348.25,1129.44 344.917,1130.1 341,1126.5C 338.579,1119.03 337.912,1111.36 339,1103.5C 339.717,1102.96 340.217,1102.29 340.5,1101.5 Z"/></g>
<g><path style="opacity:0.91" fill="#00007f" d="M 874.5,1059.5 C 876.017,1059.51 877.184,1060.18 878,1061.5C 882.961,1071.26 887.795,1081.09 892.5,1091C 965.166,1091.5 1037.83,1091.67 1110.5,1091.5C 1110.45,1094.57 1109.95,1097.57 1109,1100.5C 1105.93,1101.25 1102.93,1102.25 1100,1103.5C 1099.5,1107.82 1099.33,1112.15 1099.5,1116.5C 1091.79,1117 1084.12,1117.84 1076.5,1119C 1073.02,1127.54 1075.52,1133.71 1084,1137.5C 1085.11,1137.41 1086.11,1137.08 1087,1136.5C 1088.05,1127.81 1092.38,1125.48 1100,1129.5C 1100.35,1131.22 1100.85,1132.88 1101.5,1134.5C 1100.56,1138.34 1099.56,1142.18 1098.5,1146C 1100.31,1150.45 1101.98,1154.95 1103.5,1159.5C 1103.43,1160.77 1103.1,1161.94 1102.5,1163C 1097.57,1164.64 1094.07,1163.14 1092,1158.5C 1091.39,1155.57 1090.56,1152.74 1089.5,1150C 1068.38,1146.28 1061.22,1134.12 1068,1113.5C 1072.61,1108.68 1078.11,1107.02 1084.5,1108.5C 1088.39,1108.12 1090.22,1106.12 1090,1102.5C 1078.86,1101.13 1067.7,1101.3 1056.5,1103C 1055.51,1122.09 1055.17,1141.26 1055.5,1160.5C 1053.74,1160.36 1052.07,1160.69 1050.5,1161.5C 1048.57,1160.85 1047.4,1159.52 1047,1157.5C 1046.67,1139.17 1046.33,1120.83 1046,1102.5C 1043.01,1100.33 1039.84,1100 1036.5,1101.5C 1035.58,1121.15 1035.24,1140.81 1035.5,1160.5C 1032.88,1160.77 1030.38,1160.44 1028,1159.5C 1027.17,1154.5 1026.33,1149.5 1025.5,1144.5C 1011.41,1147.76 1003.74,1142.09 1002.5,1127.5C 1002.18,1119.58 1005.18,1113.41 1011.5,1109C 1017.7,1106.19 1022.7,1107.53 1026.5,1113C 1025.95,1113.92 1025.29,1114.76 1024.5,1115.5C 1021.68,1116.02 1019.02,1116.85 1016.5,1118C 1018.9,1122.58 1022.57,1125.41 1027.5,1126.5C 1027.67,1119.49 1027.5,1112.49 1027,1105.5C 1026.35,1101.25 1023.85,1099.58 1019.5,1100.5C 1011.48,1101.11 1003.48,1101.95 995.5,1103C 994.673,1121.43 994.173,1139.93 994,1158.5C 991.633,1161.7 988.966,1162.03 986,1159.5C 985.667,1141.5 985.333,1123.5 985,1105.5C 984.945,1103.11 983.778,1101.78 981.5,1101.5C 978.551,1102.3 975.551,1102.64 972.5,1102.5C 972.774,1109.23 972.274,1115.9 971,1122.5C 968.025,1125.4 965.192,1128.4 962.5,1131.5C 966.93,1138.03 971.096,1144.7 975,1151.5C 976.577,1156.08 975.077,1159.08 970.5,1160.5C 965.369,1155.58 961.202,1149.92 958,1143.5C 952.71,1134.26 948.543,1124.59 945.5,1114.5C 945.098,1109.93 947.098,1108.43 951.5,1110C 953.5,1113 955.5,1116 957.5,1119C 959.167,1119.67 960.833,1119.67 962.5,1119C 964.153,1113.66 964.82,1108.16 964.5,1102.5C 955.511,1101.67 946.511,1101.5 937.5,1102C 936.201,1106.87 934.867,1111.7 933.5,1116.5C 927.885,1117.29 922.218,1117.79 916.5,1118C 913.768,1118.4 911.935,1119.9 911,1122.5C 910.247,1130.32 913.581,1135.65 921,1138.5C 923.351,1135.11 925.518,1131.61 927.5,1128C 933.666,1126.41 937,1128.74 937.5,1135C 936.806,1138.78 935.806,1142.45 934.5,1146C 936.486,1150.31 938.486,1154.64 940.5,1159C 939.033,1163.29 936.033,1164.63 931.5,1163C 928.925,1158.94 926.925,1154.61 925.5,1150C 912.388,1149.22 904.555,1142.39 902,1129.5C 900.371,1120.7 903.204,1113.87 910.5,1109C 915.563,1108.75 920.563,1108.09 925.5,1107C 927.211,1105.87 927.711,1104.37 927,1102.5C 924.583,1101.65 922.083,1100.98 919.5,1100.5C 910.468,1101.06 901.468,1101.9 892.5,1103C 891.536,1107.07 891.203,1111.23 891.5,1115.5C 884.813,1115.67 878.146,1116.17 871.5,1117C 869.302,1118.67 868.968,1120.67 870.5,1123C 876.103,1124.12 881.769,1124.79 887.5,1125C 892.963,1127.91 895.63,1132.58 895.5,1139C 895.274,1142.01 894.441,1144.85 893,1147.5C 884.114,1149.45 881.614,1146.12 885.5,1137.5C 883.869,1132.01 880.536,1130.51 875.5,1133C 869.32,1135.74 867.82,1140.24 871,1146.5C 875.474,1150.33 880.641,1152.83 886.5,1154C 890.26,1156.17 891.26,1159.17 889.5,1163C 864.882,1163.73 856.215,1152.39 863.5,1129C 860.233,1123.21 859.066,1117.04 860,1110.5C 860.5,1110 861,1109.5 861.5,1109C 868.18,1108.07 874.846,1107.07 881.5,1106C 884.167,1104.67 884.167,1103.33 881.5,1102C 871.8,1101.76 862.134,1101.26 852.5,1100.5C 852.223,1097.55 852.556,1094.72 853.5,1092C 858.864,1091.83 864.198,1091.33 869.5,1090.5C 867.127,1087.63 864.627,1084.96 862,1082.5C 860.996,1072.28 863.996,1070.95 871,1078.5C 873.467,1082.6 876.301,1086.43 879.5,1090C 881.044,1091.19 882.711,1091.52 884.5,1091C 879.757,1082.43 874.423,1074.26 868.5,1066.5C 869.833,1063.51 871.833,1061.17 874.5,1059.5 Z M 1011.5,1125.5 C 1017.36,1127.36 1020.69,1131.36 1021.5,1137.5C 1013.96,1136.65 1010.63,1132.65 1011.5,1125.5 Z"/></g>
<g><path style="opacity:0.914" fill="#00007f" d="M 227.5,1064.5 C 235.787,1063.56 242.287,1066.56 247,1073.5C 250.243,1079.48 252.41,1085.81 253.5,1092.5C 272.154,1091.66 290.82,1091.33 309.5,1091.5C 309.665,1094.52 309.498,1097.52 309,1100.5C 306.618,1101.55 304.118,1102.22 301.5,1102.5C 301.667,1121.5 301.5,1140.5 301,1159.5C 298.333,1162.17 295.667,1162.17 293,1159.5C 292.803,1154.91 292.303,1150.41 291.5,1146C 289.402,1146.03 287.402,1146.7 285.5,1148C 278.208,1149.35 272.708,1146.85 269,1140.5C 265.29,1134.66 263.623,1128.32 264,1121.5C 266.166,1119.88 268.666,1119.05 271.5,1119C 276.489,1114.17 276.822,1109 272.5,1103.5C 268.198,1102.64 263.864,1101.97 259.5,1101.5C 257.626,1101.39 256.126,1102.06 255,1103.5C 254.667,1121.83 254.333,1140.17 254,1158.5C 251.763,1162.02 249.096,1162.35 246,1159.5C 245.667,1140.5 245.333,1121.5 245,1102.5C 238.113,1098.77 234.447,1100.77 234,1108.5C 234.333,1125.49 234.333,1142.49 234,1159.5C 231.333,1160.83 228.667,1160.83 226,1159.5C 225.667,1148.17 225.333,1136.83 225,1125.5C 224.727,1123.9 224.227,1122.4 223.5,1121C 217.482,1120.01 211.649,1120.51 206,1122.5C 205.333,1125.17 205.333,1127.83 206,1130.5C 208.637,1137.78 212.304,1144.44 217,1150.5C 218.48,1156.34 216.313,1159.17 210.5,1159C 202.322,1149.32 197.322,1138.15 195.5,1125.5C 195.978,1121.6 197.145,1117.94 199,1114.5C 200.8,1112.68 202.966,1111.52 205.5,1111C 211.167,1110.67 216.833,1110.33 222.5,1110C 226.571,1108.29 227.571,1105.45 225.5,1101.5C 212.557,1101.16 199.724,1101.82 187,1103.5C 186.667,1108.83 186.333,1114.17 186,1119.5C 183.404,1123.93 180.238,1127.93 176.5,1131.5C 180.917,1138 185.084,1144.67 189,1151.5C 190.756,1156.39 189.089,1159.05 184,1159.5C 181.085,1158.92 179.085,1157.25 178,1154.5C 170.828,1141.66 164.328,1128.49 158.5,1115C 159.713,1110.58 162.38,1109.08 166.5,1110.5C 167.789,1113.58 169.455,1116.41 171.5,1119C 173.701,1119.82 175.534,1119.32 177,1117.5C 177.752,1113.16 178.086,1108.83 178,1104.5C 175.834,1102.88 173.334,1102.05 170.5,1102C 164.144,1101.41 157.811,1101.57 151.5,1102.5C 151.667,1121.5 151.5,1140.5 151,1159.5C 148.267,1161.89 145.6,1161.89 143,1159.5C 142.667,1140.5 142.333,1121.5 142,1102.5C 138.667,1099.83 135.333,1099.83 132,1102.5C 131.667,1121.17 131.333,1139.83 131,1158.5C 128.894,1160.29 126.394,1160.96 123.5,1160.5C 122.668,1150.52 122.334,1140.52 122.5,1130.5C 119.102,1130.18 115.768,1130.51 112.5,1131.5C 111.833,1135.17 111.167,1138.83 110.5,1142.5C 109.277,1143.61 107.944,1143.78 106.5,1143C 99.4952,1137.49 95.8286,1130.32 95.5,1121.5C 102.062,1121.27 104.729,1117.77 103.5,1111C 103.333,1108.83 103.167,1106.67 103,1104.5C 102.804,1102.71 101.971,1101.38 100.5,1100.5C 99.3051,1104.44 97.9718,1108.28 96.5,1112C 93.1735,1112.97 91.0068,1111.8 90,1108.5C 88.4106,1101.8 89.9106,1095.97 94.5,1091C 103.613,1087.82 109.113,1090.99 111,1100.5C 111.333,1106.17 111.667,1111.83 112,1117.5C 114.467,1121.99 117.8,1122.66 122,1119.5C 124,1114.17 124,1108.83 122,1103.5C 119.602,1102.14 117.102,1100.98 114.5,1100C 111.833,1097.33 111.833,1094.67 114.5,1092C 149.498,1091.5 184.498,1091.33 219.5,1091.5C 219.334,1085.82 219.501,1080.16 220,1074.5C 221.213,1070.13 223.713,1066.8 227.5,1064.5 Z M 231.5,1074.5 C 239.13,1077.67 243.13,1083.17 243.5,1091C 238.833,1091.67 234.167,1091.67 229.5,1091C 229,1090.5 228.5,1090 228,1089.5C 227.333,1085.83 227.333,1082.17 228,1078.5C 228.69,1076.65 229.856,1075.32 231.5,1074.5 Z M 285.5,1100.5 C 288.368,1100.09 290.535,1101.09 292,1103.5C 292.667,1111.83 292.667,1120.17 292,1128.5C 289.396,1135.72 284.563,1137.89 277.5,1135C 276.128,1133.76 275.128,1132.26 274.5,1130.5C 277.528,1126.64 280.361,1122.64 283,1118.5C 283.719,1113.8 283.553,1109.13 282.5,1104.5C 282.787,1102.56 283.787,1101.22 285.5,1100.5 Z"/></g>
<g><path style="opacity:0.874" fill="#00007f" d="M 665.5,1068.5 C 671.359,1067.52 674.359,1070.02 674.5,1076C 674.082,1078.76 673.416,1081.43 672.5,1084C 669.833,1084.67 667.167,1084.67 664.5,1084C 662.522,1080.07 662.022,1075.9 663,1071.5C 663.698,1070.31 664.531,1069.31 665.5,1068.5 Z"/></g>
<g><path style="opacity:0.912" fill="#00007f" d="M 725.5,1090.5 C 734.973,1088.73 741.14,1092.4 744,1101.5C 746.123,1108.61 745.79,1115.61 743,1122.5C 739.678,1125.99 736.178,1129.32 732.5,1132.5C 734.118,1134.32 736.118,1135.65 738.5,1136.5C 744.16,1135.1 748.66,1132.1 752,1127.5C 753.406,1119.25 753.906,1110.92 753.5,1102.5C 746.829,1102.35 744.162,1099.18 745.5,1093C 775.484,1091.26 805.484,1091.09 835.5,1092.5C 837.009,1099 834.342,1102.34 827.5,1102.5C 827.5,1121.83 827.5,1141.17 827.5,1160.5C 825.143,1160.66 822.81,1160.5 820.5,1160C 819.809,1158.93 819.309,1157.77 819,1156.5C 818.832,1145.48 818.332,1134.48 817.5,1123.5C 807.816,1120.36 803.983,1123.69 806,1133.5C 803.624,1137.2 800.958,1137.2 798,1133.5C 795.11,1128.89 792.61,1124.05 790.5,1119C 790.89,1116.54 792.224,1114.87 794.5,1114C 802.483,1113.17 810.483,1112.67 818.5,1112.5C 818.5,1108.83 818.5,1105.17 818.5,1101.5C 806.744,1101.1 795.078,1101.77 783.5,1103.5C 782.714,1121.83 782.548,1140.16 783,1158.5C 779.958,1161.08 776.958,1161.08 774,1158.5C 773.5,1139.5 773.333,1120.5 773.5,1101.5C 769.894,1101.21 766.394,1101.54 763,1102.5C 761.95,1108.95 761.45,1115.45 761.5,1122C 762.67,1134.54 762.504,1147.04 761,1159.5C 758.28,1162.32 755.947,1161.99 754,1158.5C 753.807,1153.25 753.307,1148.08 752.5,1143C 748.03,1144.71 743.363,1146.21 738.5,1147.5C 728.232,1145.07 721.232,1138.9 717.5,1129C 712.709,1126.8 707.709,1126.13 702.5,1127C 700.552,1128.44 699.219,1130.27 698.5,1132.5C 701.406,1137.3 704.572,1141.97 708,1146.5C 711.402,1150.95 711.235,1155.12 707.5,1159C 705.833,1159.67 704.167,1159.67 702.5,1159C 694.042,1145.58 687.042,1131.42 681.5,1116.5C 681.969,1111.81 684.302,1110.48 688.5,1112.5C 690.177,1115.85 692.343,1118.85 695,1121.5C 698.434,1115.56 699.267,1109.22 697.5,1102.5C 689.597,1101.64 681.763,1101.64 674,1102.5C 673.667,1120.83 673.333,1139.17 673,1157.5C 670.749,1162.28 667.749,1162.62 664,1158.5C 663.402,1150.82 663.569,1143.15 664.5,1135.5C 664.333,1133.5 664.167,1131.5 664,1129.5C 659.596,1126.67 654.762,1125.84 649.5,1127C 647.091,1128.2 645.091,1129.87 643.5,1132C 649.077,1138.58 653.41,1145.92 656.5,1154C 653.088,1162.47 649.254,1162.63 645,1154.5C 638.787,1142.74 633.121,1130.74 628,1118.5C 626.21,1112.81 628.044,1110.48 633.5,1111.5C 635.757,1115.01 638.257,1118.35 641,1121.5C 642.044,1120.38 642.71,1119.04 643,1117.5C 643.499,1112.51 643.666,1107.51 643.5,1102.5C 636.77,1102.77 630.103,1102.27 623.5,1101C 622.584,1100.63 621.75,1100.13 621,1099.5C 620.503,1096.85 620.336,1094.19 620.5,1091.5C 652.186,1091.12 683.853,1091.62 715.5,1093C 716.795,1099.87 713.795,1102.7 706.5,1101.5C 705.239,1106.82 705.239,1112.16 706.5,1117.5C 713.946,1117.73 720.779,1119.73 727,1123.5C 729.923,1123.2 732.257,1121.87 734,1119.5C 739.072,1112.77 738.572,1106.61 732.5,1101C 729.447,1099.93 727.447,1100.93 726.5,1104C 727.278,1106.39 728.445,1108.56 730,1110.5C 730.435,1116.38 727.935,1117.88 722.5,1115C 720.951,1113.79 719.785,1112.29 719,1110.5C 716.903,1102.38 719.07,1095.71 725.5,1090.5 Z M 655.5,1100.5 C 658.747,1100.42 661.581,1101.42 664,1103.5C 664.499,1108.15 664.666,1112.82 664.5,1117.5C 660.5,1117.5 656.5,1117.5 652.5,1117.5C 652.334,1112.49 652.501,1107.49 653,1102.5C 653.995,1101.93 654.828,1101.27 655.5,1100.5 Z"/></g>
<g><path style="opacity:0.925" fill="#00007f" d="M 519.5,1212.5 C 526.317,1212.68 528.317,1216.02 525.5,1222.5C 519.49,1224.54 517.49,1228.54 519.5,1234.5C 525.492,1235.79 526.992,1239.13 524,1244.5C 522.846,1245.74 521.512,1246.74 520,1247.5C 518.582,1259.77 518.082,1272.11 518.5,1284.5C 515.5,1285.83 512.5,1285.83 509.5,1284.5C 508.738,1272.86 508.572,1261.19 509,1249.5C 507.71,1247.21 506.043,1245.21 504,1243.5C 502.732,1239.23 504.066,1236.23 508,1234.5C 508.462,1228.73 509.462,1223.06 511,1217.5C 513.398,1214.89 516.231,1213.22 519.5,1212.5 Z"/></g>
<g><path style="opacity:0.92" fill="#000080" d="M 83.5,1213.5 C 86.1667,1213.5 88.8333,1213.5 91.5,1213.5C 91.6666,1236.84 91.5,1260.17 91,1283.5C 90.3109,1284.36 89.4776,1285.02 88.5,1285.5C 86.5708,1284.62 84.7374,1283.62 83,1282.5C 71.8078,1287.88 65.1412,1284.54 63,1272.5C 62.3333,1264.5 62.3333,1256.5 63,1248.5C 63.4673,1243.42 65.634,1239.25 69.5,1236C 70.6667,1235.83 71.8333,1235.67 73,1235.5C 76.5514,1236.36 80.0514,1237.36 83.5,1238.5C 82.3203,1230.14 82.3203,1221.81 83.5,1213.5 Z M 74.5,1245.5 C 77.3245,1245.08 79.4912,1246.08 81,1248.5C 84.2047,1255.82 84.2047,1263.15 81,1270.5C 78.5228,1275.37 75.5228,1275.7 72,1271.5C 71.3333,1264.83 71.3333,1258.17 72,1251.5C 72.5725,1249.36 73.4058,1247.36 74.5,1245.5 Z"/></g>
<g><path style="opacity:0.909" fill="#00007f" d="M 638.5,1212.5 C 641.674,1212.72 643.507,1214.39 644,1217.5C 644.204,1224.84 644.204,1232.18 644,1239.5C 648.89,1235.21 654.057,1234.71 659.5,1238C 660.701,1238.9 661.535,1240.07 662,1241.5C 663.504,1255.13 663.837,1268.8 663,1282.5C 662.592,1284.41 661.425,1285.41 659.5,1285.5C 657.541,1285.13 655.707,1284.46 654,1283.5C 653.779,1273.49 653.779,1263.49 654,1253.5C 653.761,1247.9 651.094,1245.9 646,1247.5C 643.24,1256.16 642.74,1264.99 644.5,1274C 644.259,1277.21 643.759,1280.37 643,1283.5C 642.196,1284.8 641.029,1285.47 639.5,1285.5C 637.865,1284.95 636.199,1284.62 634.5,1284.5C 634.333,1261.16 634.5,1237.83 635,1214.5C 636.302,1213.92 637.469,1213.25 638.5,1212.5 Z"/></g>
<g><path style="opacity:0.928" fill="#00007f" d="M 745.5,1213.5 C 748.167,1213.5 750.833,1213.5 753.5,1213.5C 754.151,1236.48 753.984,1259.48 753,1282.5C 750.822,1286.07 748.156,1286.4 745,1283.5C 744.178,1260.09 744.345,1236.76 745.5,1213.5 Z"/></g>
<g><path style="opacity:0.904" fill="#00007f" d="M 981.5,1213.5 C 984.5,1213.5 987.5,1213.5 990.5,1213.5C 990.7,1237.18 990.2,1260.85 989,1284.5C 985.428,1286.05 982.761,1285.05 981,1281.5C 972.616,1287.49 965.949,1285.83 961,1276.5C 960.094,1265.44 960.427,1254.44 962,1243.5C 965.929,1234.83 971.929,1233.16 980,1238.5C 980.333,1238.17 980.667,1237.83 981,1237.5C 980.208,1229.5 980.375,1221.5 981.5,1213.5 Z M 972.5,1245.5 C 974.722,1245.18 976.556,1245.84 978,1247.5C 980.902,1255.03 981.235,1262.7 979,1270.5C 976.867,1275.3 974.2,1275.96 971,1272.5C 967.349,1263.21 967.849,1254.21 972.5,1245.5 Z"/></g>
<g><path style="opacity:0.907" fill="#00007f" d="M 1091.5,1213.5 C 1094.45,1213.22 1097.28,1213.56 1100,1214.5C 1100.5,1222.49 1100.67,1230.49 1100.5,1238.5C 1103.35,1237.25 1106.35,1236.25 1109.5,1235.5C 1112.63,1235.65 1115.13,1236.98 1117,1239.5C 1122.86,1253.12 1122.86,1266.79 1117,1280.5C 1112.09,1286.18 1106.59,1286.85 1100.5,1282.5C 1097.72,1284.13 1094.72,1284.8 1091.5,1284.5C 1090.26,1260.8 1090.26,1237.14 1091.5,1213.5 Z M 1103.5,1245.5 C 1107.17,1245.33 1109.67,1246.99 1111,1250.5C 1111.67,1256.83 1111.67,1263.17 1111,1269.5C 1107.96,1277.36 1104.63,1277.36 1101,1269.5C 1099.06,1261.21 1099.9,1253.21 1103.5,1245.5 Z"/></g>
<g><path style="opacity:0.889" fill="#00007f" d="M 1184.5,1213.5 C 1187.12,1213.23 1189.62,1213.56 1192,1214.5C 1192.67,1237.83 1192.67,1261.17 1192,1284.5C 1188.26,1285.73 1185.1,1284.73 1182.5,1281.5C 1172.56,1287.71 1166.06,1285.04 1163,1273.5C 1160.39,1261.8 1161.39,1250.47 1166,1239.5C 1170.71,1234.55 1175.87,1234.22 1181.5,1238.5C 1182.33,1230.85 1182.83,1223.19 1183,1215.5C 1183.72,1214.96 1184.22,1214.29 1184.5,1213.5 Z M 1175.5,1245.5 C 1178.29,1245.45 1180.13,1246.79 1181,1249.5C 1183.28,1257.33 1182.95,1264.99 1180,1272.5C 1177.03,1275.27 1174.37,1274.93 1172,1271.5C 1170.13,1264.15 1170.13,1256.82 1172,1249.5C 1173.1,1248.05 1174.27,1246.72 1175.5,1245.5 Z"/></g>
<g><path style="opacity:0.854" fill="#00007f" d="M 102.5,1214.5 C 111.103,1215.02 113.603,1219.35 110,1227.5C 103.602,1230.72 99.7687,1228.72 98.5,1221.5C 98.7343,1218.39 100.068,1216.06 102.5,1214.5 Z"/></g>
<g><path style="opacity:0.864" fill="#00007f" d="M 316.5,1214.5 C 324.071,1214.26 326.904,1217.93 325,1225.5C 322.427,1229.81 319.094,1230.48 315,1227.5C 314.002,1222.86 314.502,1218.52 316.5,1214.5 Z"/></g>
<g><path style="opacity:0.888" fill="#000080" d="M 11.5,1217.5 C 16.0308,1216.89 18.1975,1218.89 18,1223.5C 18.8642,1243.87 18.3642,1264.2 16.5,1284.5C 13.8663,1285.52 11.1996,1285.52 8.5,1284.5C 7.47737,1263.84 7.3107,1243.18 8,1222.5C 8.99728,1220.68 10.1639,1219.01 11.5,1217.5 Z"/></g>
<g><path style="opacity:0.921" fill="#000080" d="M 210.5,1217.5 C 212.467,1217.26 214.301,1217.59 216,1218.5C 216.667,1240.5 216.667,1262.5 216,1284.5C 213.084,1286.01 210.418,1285.68 208,1283.5C 206.101,1262.17 206.101,1240.84 208,1219.5C 208.995,1218.93 209.828,1218.27 210.5,1217.5 Z"/></g>
<g><path style="opacity:0.907" fill="#000080" d="M 888.5,1217.5 C 892.355,1216.85 895.188,1218.18 897,1221.5C 897.5,1229.16 897.666,1236.83 897.5,1244.5C 901.833,1244.5 906.167,1244.5 910.5,1244.5C 909.646,1236.44 909.813,1228.44 911,1220.5C 912.876,1217.57 915.376,1216.91 918.5,1218.5C 919.5,1240.49 919.833,1262.49 919.5,1284.5C 916.5,1284.5 913.5,1284.5 910.5,1284.5C 910.5,1275.17 910.5,1265.83 910.5,1256.5C 906.167,1256.5 901.833,1256.5 897.5,1256.5C 897.5,1265.83 897.5,1275.17 897.5,1284.5C 893.833,1284.5 890.167,1284.5 886.5,1284.5C 886.333,1262.83 886.5,1241.16 887,1219.5C 887.717,1218.96 888.217,1218.29 888.5,1217.5 Z"/></g>
<g><path style="opacity:0.928" fill="#00007f" d="M 543.5,1218.5 C 551.507,1218.33 559.507,1218.5 567.5,1219C 572.946,1219.38 574.78,1222.21 573,1227.5C 569.629,1229.76 565.962,1231.43 562,1232.5C 561.5,1249.83 561.333,1267.16 561.5,1284.5C 558.5,1284.5 555.5,1284.5 552.5,1284.5C 552.5,1266.83 552.5,1249.17 552.5,1231.5C 548.785,1231.8 545.285,1231.14 542,1229.5C 539.697,1225.33 540.197,1221.66 543.5,1218.5 Z"/></g>
<g><path style="opacity:0.899" fill="#00007f" d="M 297.5,1222.5 C 299.451,1222.23 300.951,1222.89 302,1224.5C 302.333,1227.83 302.667,1231.17 303,1234.5C 304.584,1235.86 306.418,1236.53 308.5,1236.5C 310.329,1243.05 307.996,1246.38 301.5,1246.5C 301.124,1255.24 301.624,1263.9 303,1272.5C 309.569,1274.52 311.069,1278.35 307.5,1284C 303.864,1285.9 300.197,1285.9 296.5,1284C 295.107,1282.83 294.273,1281.33 294,1279.5C 292.792,1268.88 292.125,1258.22 292,1247.5C 284.875,1243.17 284.875,1238.5 292,1233.5C 292.253,1228.99 294.086,1225.33 297.5,1222.5 Z"/></g>
<g><path style="opacity:0.892" fill="#00007f" d="M 340.5,1222.5 C 341.833,1222.5 343.167,1222.5 344.5,1222.5C 344.372,1226.88 344.705,1231.21 345.5,1235.5C 349.176,1235.32 351.176,1236.99 351.5,1240.5C 351.339,1244.99 349.006,1246.99 344.5,1246.5C 344.334,1254.84 344.5,1263.17 345,1271.5C 346.378,1273.21 348.045,1274.55 350,1275.5C 352.549,1284.86 349.049,1287.7 339.5,1284C 337.114,1282.16 335.947,1279.66 336,1276.5C 335.667,1267.5 335.333,1258.5 335,1249.5C 332.714,1246.9 330.881,1244.06 329.5,1241C 329.645,1239.77 329.978,1238.61 330.5,1237.5C 334.413,1234.5 336.58,1230.5 337,1225.5C 338.145,1224.36 339.312,1223.36 340.5,1222.5 Z"/></g>
<g><path style="opacity:0.904" fill="#00007f" d="M 400.5,1222.5 C 401.833,1222.5 403.167,1222.5 404.5,1222.5C 405.108,1226.47 405.608,1230.47 406,1234.5C 407.648,1235.72 409.481,1236.55 411.5,1237C 412.797,1239.54 412.631,1242.04 411,1244.5C 408.884,1245.69 406.884,1247.02 405,1248.5C 404.612,1256.18 404.945,1263.85 406,1271.5C 411.209,1273.92 413.209,1277.92 412,1283.5C 406.706,1286.11 401.706,1285.44 397,1281.5C 396.048,1270.52 395.382,1259.52 395,1248.5C 394.333,1246.5 393,1245.17 391,1244.5C 390.219,1243.27 389.719,1241.94 389.5,1240.5C 390.728,1237.76 392.562,1235.43 395,1233.5C 395.289,1228.92 397.122,1225.26 400.5,1222.5 Z"/></g>
<g><path style="opacity:0.916" fill="#00007f" d="M 43.5,1234.5 C 48.8397,1234.66 52.3397,1237.33 54,1242.5C 56.2879,1256.14 56.6213,1269.81 55,1283.5C 52.4065,1285.8 49.5732,1286.14 46.5,1284.5C 46.5747,1272.48 46.0747,1260.48 45,1248.5C 42.146,1245.98 39.4793,1246.32 37,1249.5C 35.8058,1261.13 35.1391,1272.79 35,1284.5C 32.5679,1285.45 30.0679,1285.45 27.5,1284.5C 26.0931,1268.46 26.2598,1252.46 28,1236.5C 28.7247,1235.94 29.5581,1235.61 30.5,1235.5C 32.4771,1236.46 34.4771,1237.46 36.5,1238.5C 38.8926,1237.07 41.2259,1235.74 43.5,1234.5 Z"/></g>
<g><path style="opacity:0.902" fill="#000080" d="M 126.5,1234.5 C 131.837,1234.26 136.67,1235.6 141,1238.5C 141.667,1239.83 142.333,1241.17 143,1242.5C 145.368,1256.13 145.868,1269.8 144.5,1283.5C 141.348,1284.81 138.348,1284.48 135.5,1282.5C 123.47,1288.31 116.803,1284.48 115.5,1271C 115.872,1266.59 117.038,1262.42 119,1258.5C 119.903,1257.3 121.069,1256.47 122.5,1256C 126.469,1255.15 130.469,1254.48 134.5,1254C 135.967,1250.1 134.8,1247.27 131,1245.5C 127.208,1246.31 123.375,1246.64 119.5,1246.5C 117.235,1239.69 119.568,1235.69 126.5,1234.5 Z M 131.5,1260.5 C 134.485,1260.82 136.152,1262.48 136.5,1265.5C 136.067,1270.05 133.901,1273.38 130,1275.5C 124.767,1273.63 123.434,1270.3 126,1265.5C 127.73,1263.6 129.563,1261.93 131.5,1260.5 Z"/></g>
<g><path style="opacity:0.91" fill="#000080" d="M 154.5,1234.5 C 157.267,1235.05 159.6,1236.38 161.5,1238.5C 175.573,1232.14 182.073,1236.81 181,1252.5C 181.5,1263.16 181.667,1273.83 181.5,1284.5C 179.801,1284.62 178.135,1284.95 176.5,1285.5C 174.971,1285.47 173.804,1284.8 173,1283.5C 171.757,1272.22 171.09,1260.89 171,1249.5C 169.012,1246.16 166.679,1245.83 164,1248.5C 162.908,1251.04 162.241,1253.71 162,1256.5C 161.5,1265.83 161.334,1275.16 161.5,1284.5C 158.5,1284.5 155.5,1284.5 152.5,1284.5C 152.333,1268.5 152.5,1252.5 153,1236.5C 153.717,1235.96 154.217,1235.29 154.5,1234.5 Z"/></g>
<g><path style="opacity:0.9" fill="#00007f" d="M 228.5,1234.5 C 230.696,1235.76 233.03,1236.76 235.5,1237.5C 244.418,1232.3 250.251,1234.64 253,1244.5C 254.52,1257.46 254.853,1270.46 254,1283.5C 251.061,1285.81 247.895,1286.15 244.5,1284.5C 244.667,1272.83 244.5,1261.16 244,1249.5C 240.486,1245.69 237.486,1246.36 235,1251.5C 234.832,1262.52 234.332,1273.52 233.5,1284.5C 230.866,1285.52 228.2,1285.52 225.5,1284.5C 225.333,1269.16 225.5,1253.83 226,1238.5C 226.662,1237.02 227.496,1235.68 228.5,1234.5 Z"/></g>
<g><path style="opacity:0.892" fill="#00007f" d="M 270.5,1234.5 C 274.875,1234.35 278.708,1235.68 282,1238.5C 283.296,1245.7 280.463,1248.03 273.5,1245.5C 271.792,1245.7 270.459,1246.54 269.5,1248C 272.919,1253.42 277.085,1258.26 282,1262.5C 284,1268.17 284,1273.83 282,1279.5C 276.296,1285.6 269.462,1287.1 261.5,1284C 258.941,1280.93 258.941,1277.93 261.5,1275C 265.167,1274.67 268.833,1274.33 272.5,1274C 273.574,1273.26 274.241,1272.26 274.5,1271C 269.635,1265.8 265.135,1260.3 261,1254.5C 258.594,1244.98 261.761,1238.32 270.5,1234.5 Z"/></g>
<g><path style="opacity:0.904" fill="#000080" d="M 361.5,1234.5 C 362.721,1235.03 363.887,1235.69 365,1236.5C 365.956,1248.48 366.622,1260.48 367,1272.5C 369.592,1273.98 371.925,1273.65 374,1271.5C 374.926,1259.47 375.926,1247.47 377,1235.5C 379.906,1234.59 382.573,1235.25 385,1237.5C 385.5,1253.16 385.667,1268.83 385.5,1284.5C 379.067,1282.85 372.734,1283.18 366.5,1285.5C 363.99,1285.17 361.823,1284.17 360,1282.5C 358.173,1278.72 357.173,1274.72 357,1270.5C 356.254,1258.81 356.42,1247.14 357.5,1235.5C 359.099,1235.77 360.432,1235.43 361.5,1234.5 Z"/></g>
<g><path style="opacity:0.898" fill="#00007f" d="M 480.5,1234.5 C 492.342,1235.17 498.842,1241.51 500,1253.5C 500.774,1260.22 500.441,1266.89 499,1273.5C 495.147,1283.84 487.98,1287.34 477.5,1284C 472.851,1281.54 470.017,1277.71 469,1272.5C 466.438,1261.8 467.438,1251.46 472,1241.5C 474.441,1238.55 477.275,1236.21 480.5,1234.5 Z M 482.5,1245.5 C 484.903,1245.39 486.736,1246.39 488,1248.5C 491.33,1256.48 491.33,1264.48 488,1272.5C 483.333,1275.57 480.333,1274.24 479,1268.5C 478.333,1263.17 478.333,1257.83 479,1252.5C 479.133,1249.6 480.3,1247.26 482.5,1245.5 Z"/></g>
<g><path style="opacity:0.9" fill="#000080" d="M 583.5,1234.5 C 591.96,1235.46 597.127,1240.12 599,1248.5C 599.499,1253.15 599.666,1257.82 599.5,1262.5C 593.855,1263.13 588.189,1263.63 582.5,1264C 580.59,1264.41 579.59,1265.57 579.5,1267.5C 580.26,1269.44 581.26,1271.27 582.5,1273C 588.094,1273.35 593.594,1274.18 599,1275.5C 599.52,1279.63 598.02,1282.79 594.5,1285C 577.321,1286.49 569.321,1278.49 570.5,1261C 569.603,1253.09 571.436,1245.92 576,1239.5C 577.913,1236.72 580.413,1235.05 583.5,1234.5 Z M 583.5,1245.5 C 588.895,1245.91 591.228,1248.91 590.5,1254.5C 586.131,1255.08 582.131,1254.24 578.5,1252C 579.594,1249.27 581.26,1247.11 583.5,1245.5 Z"/></g>
<g><path style="opacity:0.893" fill="#00007f" d="M 618.5,1234.5 C 624.288,1233.74 627.954,1236.07 629.5,1241.5C 629.471,1243.03 628.804,1244.2 627.5,1245C 624.172,1246.17 620.839,1247.33 617.5,1248.5C 616.416,1249.67 615.583,1251 615,1252.5C 614.091,1258.61 614.424,1264.61 616,1270.5C 616.903,1271.7 618.069,1272.53 619.5,1273C 622.627,1273.39 625.627,1274.23 628.5,1275.5C 630.592,1277.79 630.926,1280.29 629.5,1283C 617.85,1287.89 609.683,1284.39 605,1272.5C 601.879,1259.44 604.379,1247.6 612.5,1237C 614.611,1236.16 616.611,1235.32 618.5,1234.5 Z"/></g>
<g><path style="opacity:0.903" fill="#00007f" d="M 672.5,1234.5 C 675.285,1234.93 677.619,1236.27 679.5,1238.5C 685.775,1234.21 691.608,1234.54 697,1239.5C 699.279,1253.07 699.945,1266.74 699,1280.5C 697.895,1285.65 695.228,1286.65 691,1283.5C 690.667,1273.83 690.333,1264.17 690,1254.5C 690.331,1250.48 688.664,1247.81 685,1246.5C 682.575,1247.26 681.242,1248.93 681,1251.5C 680.799,1262.03 680.299,1272.53 679.5,1283C 678.663,1284.59 677.33,1285.42 675.5,1285.5C 673.865,1284.95 672.199,1284.62 670.5,1284.5C 670.333,1268.83 670.5,1253.16 671,1237.5C 671.513,1236.47 672.013,1235.47 672.5,1234.5 Z"/></g>
<g><path style="opacity:0.91" fill="#00007f" d="M 808.5,1234.5 C 812.369,1234.85 815.869,1236.18 819,1238.5C 821.786,1236.34 824.786,1235.67 828,1236.5C 828.667,1253.17 828.667,1269.83 828,1286.5C 825.762,1303.05 816.595,1308.55 800.5,1303C 797.393,1299.83 796.726,1296.16 798.5,1292C 803.563,1291.85 808.563,1292.19 813.5,1293C 817.268,1290.81 819.268,1287.47 819.5,1283C 819.491,1281.6 818.991,1280.43 818,1279.5C 811.798,1285.14 806.131,1284.48 801,1277.5C 796.013,1263.95 796.68,1250.61 803,1237.5C 804.876,1236.39 806.709,1235.39 808.5,1234.5 Z M 811.5,1245.5 C 813.903,1245.39 815.736,1246.39 817,1248.5C 820.331,1256.49 820.331,1264.49 817,1272.5C 813.251,1275.17 810.584,1274.17 809,1269.5C 806.454,1261.07 807.287,1253.07 811.5,1245.5 Z"/></g>
<g><path style="opacity:0.895" fill="#00007f" d="M 835.5,1234.5 C 837.936,1234.32 840.103,1234.98 842,1236.5C 843.876,1246.68 846.21,1256.68 849,1266.5C 851.214,1256.55 853.214,1246.55 855,1236.5C 859.603,1233.39 863.103,1234.39 865.5,1239.5C 859.85,1259.77 854.35,1280.1 849,1300.5C 845.359,1305.16 840.859,1306.33 835.5,1304C 834.146,1300.79 834.313,1297.62 836,1294.5C 840.017,1292.49 842.517,1289.32 843.5,1285C 840.883,1271.7 837.717,1258.53 834,1245.5C 833.013,1241.53 833.513,1237.86 835.5,1234.5 Z"/></g>
<g><path style="opacity:0.89" fill="#00007f" d="M 928.5,1234.5 C 930.722,1234.18 932.556,1234.84 934,1236.5C 936.333,1246.83 938.666,1257.16 941,1267.5C 943.433,1257.26 945.766,1246.93 948,1236.5C 950.587,1233.97 953.253,1233.97 956,1236.5C 956.167,1237.5 956.333,1238.5 956.5,1239.5C 951.936,1258.48 947.436,1277.48 943,1296.5C 940.734,1303.05 936.234,1305.55 929.5,1304C 926.71,1301.79 925.877,1298.96 927,1295.5C 929.198,1293.38 931.698,1291.71 934.5,1290.5C 935.077,1288.89 935.41,1287.23 935.5,1285.5C 932.484,1270.1 929.151,1254.77 925.5,1239.5C 925.323,1237.03 926.323,1235.37 928.5,1234.5 Z"/></g>
<g><path style="opacity:0.902" fill="#000080" d="M 1009.5,1234.5 C 1017.77,1234.93 1022.94,1239.26 1025,1247.5C 1026.18,1252.19 1026.35,1256.86 1025.5,1261.5C 1024.97,1262.19 1024.31,1262.69 1023.5,1263C 1018.83,1263.33 1014.17,1263.67 1009.5,1264C 1007.43,1264.12 1006.09,1265.12 1005.5,1267C 1006.21,1270.1 1007.87,1272.43 1010.5,1274C 1015.42,1273.94 1020.25,1274.1 1025,1274.5C 1026.43,1279.81 1024.6,1283.31 1019.5,1285C 1006.52,1286.93 999.016,1281.43 997,1268.5C 995.284,1258.54 996.951,1249.21 1002,1240.5C 1004.13,1237.85 1006.63,1235.85 1009.5,1234.5 Z M 1009.5,1245.5 C 1015.07,1245.88 1017.4,1248.72 1016.5,1254C 1012.85,1256.14 1009.35,1255.97 1006,1253.5C 1005.78,1250.28 1006.94,1247.61 1009.5,1245.5 Z"/></g>
<g><path style="opacity:0.899" fill="#00007f" d="M 1033.5,1234.5 C 1036.69,1234.76 1039.36,1236.1 1041.5,1238.5C 1043.93,1236.44 1046.6,1235.28 1049.5,1235C 1054.24,1241.3 1052.9,1245.97 1045.5,1249C 1044.54,1250.42 1043.71,1251.92 1043,1253.5C 1042.8,1263.37 1042.3,1273.2 1041.5,1283C 1040.66,1284.59 1039.33,1285.42 1037.5,1285.5C 1035.87,1284.95 1034.2,1284.62 1032.5,1284.5C 1032.17,1274.5 1031.83,1264.5 1031.5,1254.5C 1031.28,1247.68 1031.95,1241.01 1033.5,1234.5 Z"/></g>
<g><path style="opacity:0.897" fill="#00007f" d="M 1064.5,1234.5 C 1071.65,1234.04 1077.15,1236.7 1081,1242.5C 1082.18,1253.63 1083.01,1264.79 1083.5,1276C 1084.06,1285.3 1080.56,1287.46 1073,1282.5C 1064.39,1287.88 1058.06,1285.88 1054,1276.5C 1052.43,1270.66 1053.1,1264.99 1056,1259.5C 1057.58,1257.96 1059.41,1256.79 1061.5,1256C 1065.27,1255.59 1068.94,1254.76 1072.5,1253.5C 1074.21,1250.23 1073.55,1247.73 1070.5,1246C 1066.76,1245.68 1063.09,1246.18 1059.5,1247.5C 1058.56,1247.39 1057.72,1247.06 1057,1246.5C 1055.74,1240 1058.24,1236 1064.5,1234.5 Z M 1069.5,1260.5 C 1071.02,1260.51 1072.18,1261.18 1073,1262.5C 1074.89,1268.53 1073.06,1272.86 1067.5,1275.5C 1064.62,1274.08 1062.95,1271.75 1062.5,1268.5C 1064.14,1265.2 1066.47,1262.53 1069.5,1260.5 Z"/></g>
<g><path style="opacity:0.895" fill="#00007f" d="M 1134.5,1234.5 C 1141.6,1233.81 1147.77,1235.81 1153,1240.5C 1154.35,1253.99 1155.52,1267.49 1156.5,1281C 1156.24,1282.26 1155.57,1283.26 1154.5,1284C 1151,1284.7 1147.67,1284.2 1144.5,1282.5C 1136.69,1287.67 1130.86,1286.01 1127,1277.5C 1125.67,1270.75 1126.67,1264.42 1130,1258.5C 1134.31,1255.54 1139.15,1254.04 1144.5,1254C 1146.12,1250.75 1145.45,1248.08 1142.5,1246C 1139.06,1245.53 1135.72,1246.03 1132.5,1247.5C 1130.97,1247.47 1129.8,1246.8 1129,1245.5C 1127.92,1240.18 1129.75,1236.52 1134.5,1234.5 Z M 1141.5,1260.5 C 1143.02,1260.51 1144.18,1261.18 1145,1262.5C 1146.9,1268.58 1145.06,1272.91 1139.5,1275.5C 1136.65,1274.17 1134.98,1271.83 1134.5,1268.5C 1136.14,1265.2 1138.47,1262.53 1141.5,1260.5 Z"/></g>
<g><path style="opacity:0.902" fill="#00007f" d="M 425.5,1235.5 C 433.514,1233.76 439.347,1236.43 443,1243.5C 445.372,1249.72 446.206,1256.05 445.5,1262.5C 444.975,1263.19 444.308,1263.69 443.5,1264C 438.167,1264.33 432.833,1264.67 427.5,1265C 426.328,1265.42 425.328,1266.09 424.5,1267C 425.885,1271.71 429.052,1274.21 434,1274.5C 442.696,1271.54 445.863,1274.37 443.5,1283C 437.274,1285.71 430.941,1286.05 424.5,1284C 415.522,1272.77 413.355,1260.27 418,1246.5C 419.582,1242.11 422.082,1238.44 425.5,1235.5 Z M 428.5,1245.5 C 434.536,1245.39 436.536,1248.23 434.5,1254C 423.99,1257 421.99,1254.16 428.5,1245.5 Z"/></g>
<g><path style="opacity:0.905" fill="#00007f" d="M 714.5,1235.5 C 724.308,1233.16 731.142,1236.49 735,1245.5C 739.99,1258.23 738.823,1270.4 731.5,1282C 717.555,1288.94 709.055,1284.78 706,1269.5C 704.429,1259.39 705.762,1249.72 710,1240.5C 711.366,1238.64 712.866,1236.97 714.5,1235.5 Z M 719.5,1245.5 C 721.722,1245.18 723.556,1245.84 725,1247.5C 727.849,1255.05 728.182,1262.72 726,1270.5C 723.523,1275.37 720.523,1275.7 717,1271.5C 713.923,1262.52 714.756,1253.85 719.5,1245.5 Z"/></g>
<g><path style="opacity:0.894" fill="#000080" d="M 770.5,1235.5 C 781.236,1233.11 788.07,1237.11 791,1247.5C 793.613,1258.54 792.613,1269.21 788,1279.5C 781.593,1286.45 774.426,1287.28 766.5,1282C 764.064,1279.29 762.564,1276.13 762,1272.5C 761.333,1263.83 761.333,1255.17 762,1246.5C 763.553,1241.79 766.386,1238.12 770.5,1235.5 Z M 775.5,1245.5 C 777.39,1245.3 778.89,1245.96 780,1247.5C 784.489,1256.42 784.322,1265.25 779.5,1274C 776.356,1274.95 773.856,1274.12 772,1271.5C 770.504,1264.9 770.171,1258.23 771,1251.5C 772.277,1249.25 773.777,1247.25 775.5,1245.5 Z"/></g>
<g><path style="opacity:0.896" fill="#01007f" d="M 101.5,1236.5 C 104.167,1236.5 106.833,1236.5 109.5,1236.5C 110.116,1250.5 110.283,1264.5 110,1278.5C 109.811,1285.84 106.478,1287.5 100,1283.5C 99.1192,1267.73 99.6192,1252.06 101.5,1236.5 Z"/></g>
<g><path style="opacity:0.898" fill="#000080" d="M 315.5,1236.5 C 318.167,1236.5 320.833,1236.5 323.5,1236.5C 323.5,1252.5 323.5,1268.5 323.5,1284.5C 318.02,1286.34 315.186,1284.34 315,1278.5C 314.375,1264.49 314.542,1250.49 315.5,1236.5 Z"/></g>
</svg>
