<?xml version="1.0" standalone="no"?>
<!DOCTYPE svg PUBLIC "-//W3C//DTD SVG 20010904//EN"
 "http://www.w3.org/TR/2001/REC-SVG-20010904/DTD/svg10.dtd">
<svg version="1.0" xmlns="http://www.w3.org/2000/svg"
 width="504.000000pt" height="152.000000pt" viewBox="0 0 504.000000 152.000000"
 preserveAspectRatio="xMidYMid meet">

<g transform="translate(0.000000,152.000000) scale(0.100000,-0.100000)"
fill="#000000" stroke="none">
<path d="M1030 1352 c-21 -10 -42 -32 -53 -54 -16 -33 -17 -40 -3 -71 18 -44
54 -68 110 -74 87 -10 156 35 156 104 0 91 -114 143 -210 95z"/>
<path d="M1825 880 c0 -272 1 -384 2 -247 2 136 2 358 0 495 -1 136 -2 24 -2
-248z"/>
<path d="M2375 1196 c-14 -34 -162 -389 -172 -412 -2 -7 16 -16 44 -23 125
-32 299 -140 370 -230 56 -70 58 -71 23 -4 -62 119 -181 227 -295 268 -27 10
-52 20 -54 21 -4 4 127 316 138 326 11 12 72 -9 97 -33 l23 -22 11 27 c5 15
10 31 10 35 0 10 -114 67 -153 76 -24 6 -29 3 -42 -29z"/>
<path d="M2209 1117 c-23 -56 -75 -182 -115 -279 l-72 -177 66 -6 c106 -11
230 -43 324 -84 90 -40 258 -145 258 -162 0 -5 5 -9 12 -9 21 0 -84 99 -154
146 -82 55 -196 109 -308 145 -46 15 -86 31 -87 36 -2 5 39 112 91 238 52 126
93 231 92 233 -2 1 -17 7 -34 11 l-30 9 -43 -101z"/>
<path d="M858 811 c-2 -247 -1 -300 10 -296 8 3 53 17 100 31 48 14 95 28 105
31 16 5 17 25 17 237 l0 232 -97 29 c-54 15 -106 30 -115 33 -16 4 -18 -18
-20 -297z"/>
<path d="M1223 1077 l-103 -31 0 -231 0 -231 78 -24 c42 -13 94 -29 115 -36
l37 -13 0 299 c0 234 -3 300 -12 299 -7 -1 -59 -15 -115 -32z"/>
<path d="M2770 955 l0 -125 45 0 45 0 0 125 0 125 -45 0 -45 0 0 -125z"/>
<path d="M2920 955 l0 -125 45 0 45 0 0 125 0 125 -45 0 -45 0 0 -125z"/>
<path d="M3040 1055 c0 -23 3 -25 50 -25 l50 0 0 -100 0 -100 45 0 45 0 0 100
0 100 45 0 c41 0 45 2 45 25 l0 25 -140 0 -140 0 0 -25z"/>
<path d="M3360 955 l0 -125 39 0 40 0 3 48 3 47 63 3 62 3 0 -51 0 -50 40 0
40 0 0 125 0 125 -39 0 -40 0 -3 -47 -3 -48 -60 0 -60 0 -3 48 -3 47 -40 0
-39 0 0 -125z"/>
<path d="M3044 746 c-28 -22 -7 -51 36 -51 40 0 61 25 41 49 -17 20 -51 21
-77 2z"/>
<path d="M3180 606 l0 -134 97 -1 c110 0 144 12 163 59 16 40 4 86 -31 112
-28 21 -89 28 -126 15 -22 -8 -23 -6 -23 37 l0 46 -40 0 -40 0 0 -134z m181
-18 c16 -29 -13 -68 -50 -68 -34 0 -54 21 -49 52 6 45 77 57 99 16z"/>
<path d="M2770 595 l0 -125 120 0 120 0 0 25 c0 24 -2 25 -75 25 l-75 0 0 100
0 100 -45 0 -45 0 0 -125z"/>
<path d="M3615 663 c-11 -3 -26 -10 -32 -15 -9 -7 -13 -7 -13 1 0 6 -17 11
-40 11 l-40 0 0 -95 0 -95 40 0 40 0 0 50 c0 55 23 90 60 90 16 0 20 7 20 30
0 17 -3 29 -7 29 -5 -1 -17 -4 -28 -6z"/>
<path d="M3732 661 c-42 -11 -46 -15 -33 -39 10 -18 15 -19 47 -10 26 7 44 6
61 -1 39 -18 26 -31 -30 -31 -61 0 -97 -20 -97 -54 0 -13 8 -30 18 -39 21 -19
92 -23 123 -7 13 7 19 7 19 0 0 -5 16 -10 35 -10 l36 0 -3 76 c-3 69 -6 79
-28 95 -29 22 -101 31 -148 20z m96 -128 c-4 -23 -68 -32 -68 -10 0 20 10 27
42 27 23 0 29 -4 26 -17z"/>
<path d="M4095 663 c-11 -3 -26 -10 -32 -15 -9 -7 -13 -7 -13 1 0 6 -17 11
-40 11 l-40 0 0 -95 0 -95 40 0 40 0 0 50 c0 55 23 90 60 90 16 0 20 7 20 30
0 17 -3 29 -7 29 -5 -1 -17 -4 -28 -6z"/>
<path d="M3040 565 l0 -95 40 0 40 0 0 95 0 95 -40 0 -40 0 0 -95z"/>
<path d="M4190 565 c28 -53 48 -100 45 -105 -3 -6 -21 -10 -38 -10 -21 0 -36
-7 -44 -19 -16 -26 -8 -31 57 -31 72 0 89 17 159 158 l51 102 -40 0 c-39 0
-41 -1 -65 -56 -13 -30 -28 -53 -33 -50 -4 2 -19 27 -32 55 -23 50 -24 51 -68
51 l-44 0 52 -95z"/>
<path d="M2092 582 c-7 -22 -12 -44 -12 -49 0 -5 37 -7 88 -5 107 5 241 -17
352 -57 105 -39 94 -22 -12 19 -106 41 -195 60 -286 60 l-73 0 3 33 c3 28 0
32 -23 35 -22 3 -27 -2 -37 -36z"/>
<path d="M598 323 c18 -2 45 -2 60 0 15 2 0 4 -33 4 -33 0 -45 -2 -27 -4z"/>
<path d="M808 323 c7 -3 16 -2 19 1 4 3 -2 6 -13 5 -11 0 -14 -3 -6 -6z"/>
<path d="M1123 323 c20 -2 54 -2 75 0 20 2 3 4 -38 4 -41 0 -58 -2 -37 -4z"/>
<path d="M1363 323 c48 -2 125 -2 170 0 45 1 6 3 -88 3 -93 0 -130 -2 -82 -3z"/>
<path d="M1723 323 c9 -2 25 -2 35 0 9 3 1 5 -18 5 -19 0 -27 -2 -17 -5z"/>
<path d="M1798 323 c7 -3 16 -2 19 1 4 3 -2 6 -13 5 -11 0 -14 -3 -6 -6z"/>
<path d="M1858 323 c17 -2 47 -2 65 0 17 2 3 4 -33 4 -36 0 -50 -2 -32 -4z"/>
<path d="M2153 323 c93 -2 241 -2 330 0 89 1 14 3 -168 3 -181 0 -254 -2 -162
-3z"/>
<path d="M2678 323 c6 -2 18 -2 25 0 6 3 1 5 -13 5 -14 0 -19 -2 -12 -5z"/>
<path d="M3068 323 c193 -2 511 -2 705 0 193 1 35 2 -353 2 -388 0 -546 -1
-352 -2z"/>
<path d="M4173 323 c9 -2 23 -2 30 0 6 3 -1 5 -18 5 -16 0 -22 -2 -12 -5z"/>
<path d="M4233 323 c9 -2 23 -2 30 0 6 3 -1 5 -18 5 -16 0 -22 -2 -12 -5z"/>
<path d="M4388 323 c17 -2 47 -2 65 0 17 2 3 4 -33 4 -36 0 -50 -2 -32 -4z"/>
<path d="M1209 235 c-10 -10 -13 -28 -11 -50 5 -39 22 -48 22 -12 0 13 5 28
12 35 9 9 9 12 -1 12 -7 0 -9 5 -6 10 4 6 11 8 16 5 5 -4 9 -1 9 4 0 16 -23
13 -41 -4z"/>
<path d="M1610 240 c0 -5 5 -10 10 -10 6 0 10 5 10 10 0 6 -4 10 -10 10 -5 0
-10 -4 -10 -10z"/>
<path d="M2105 234 c-9 -9 -14 -23 -11 -31 3 -8 6 -23 6 -34 0 -10 5 -19 10
-19 6 0 10 14 10 30 0 17 5 30 13 30 8 0 7 4 -3 10 -10 6 -11 10 -2 10 6 0 12
5 12 10 0 15 -17 12 -35 -6z"/>
<path d="M2670 240 c0 -5 5 -10 10 -10 6 0 10 5 10 10 0 6 -4 10 -10 10 -5 0
-10 -4 -10 -10z"/>
<path d="M4070 230 c0 -12 -4 -18 -11 -15 -5 4 -21 4 -35 1 -20 -5 -25 -12
-22 -34 3 -24 8 -27 46 -30 l42 -3 0 45 c0 25 -4 48 -10 51 -5 3 -10 -3 -10
-15z m-11 -29 c19 -12 6 -41 -18 -41 -23 0 -34 23 -18 39 13 13 18 13 36 2z"/>
<path d="M743 233 c12 -3 17 -15 17 -44 0 -21 5 -39 10 -39 6 0 10 18 10 39 0
33 4 40 23 44 12 2 0 4 -28 4 -27 1 -42 -1 -32 -4z"/>
<path d="M1930 195 c0 -25 5 -45 10 -45 6 0 10 20 10 45 0 25 -4 45 -10 45 -5
0 -10 -20 -10 -45z"/>
<path d="M3370 194 c0 -46 0 -46 18 -24 l17 22 19 -21 c11 -12 24 -21 29 -21
6 0 0 11 -13 25 l-23 24 24 20 c31 26 15 27 -18 1 -30 -24 -47 -26 -40 -5 4 8
2 17 -3 20 -6 4 -10 -13 -10 -41z"/>
<path d="M3850 195 c0 -25 5 -45 10 -45 6 0 10 20 10 45 0 25 -4 45 -10 45 -5
0 -10 -20 -10 -45z"/>
<path d="M2600 220 c-9 -5 -9 -9 -1 -14 6 -4 11 -18 11 -32 0 -18 5 -24 23
-24 20 1 20 2 5 11 -22 13 -23 35 -2 47 14 8 14 10 -4 14 -11 3 -25 2 -32 -2z"/>
<path d="M3146 222 c-11 -18 11 -67 30 -69 10 -2 13 0 7 3 -7 3 -13 17 -13 30
0 13 6 24 13 24 8 0 7 4 -3 10 -19 12 -27 12 -34 2z"/>
<path d="M837 194 c-2 -13 0 -29 4 -36 6 -9 9 -6 9 10 0 12 7 25 15 28 21 8
19 20 -4 20 -12 0 -21 -9 -24 -22z"/>
<path d="M905 210 c-5 -9 -1 -10 14 -5 11 3 26 3 33 -2 9 -5 3 -9 -17 -13 -18
-3 -31 -12 -33 -23 -3 -14 4 -17 33 -17 35 0 36 1 33 33 -2 26 -8 33 -30 35
-14 2 -29 -2 -33 -8z m50 -40 c-3 -5 -13 -10 -21 -10 -8 0 -14 5 -14 10 0 6 9
10 21 10 11 0 17 -4 14 -10z"/>
<path d="M1000 183 c0 -18 5 -33 10 -33 6 0 10 11 10 24 0 24 23 41 41 30 5
-3 9 -16 9 -30 0 -13 5 -24 10 -24 14 0 12 46 -3 58 -7 6 -27 10 -45 10 -29
-1 -32 -4 -32 -35z"/>
<path d="M1121 211 c-18 -11 -5 -31 20 -31 29 0 23 -18 -8 -23 -22 -4 -20 -4
6 -3 42 1 53 23 17 32 -14 3 -26 11 -26 16 0 6 9 8 20 5 11 -3 20 -1 20 4 0
11 -31 11 -49 0z"/>
<path d="M1266 204 c-9 -8 -16 -19 -16 -23 0 -17 30 -32 57 -29 21 2 29 9 31
27 6 39 -42 56 -72 25z m51 -5 c16 -16 5 -39 -17 -39 -25 0 -35 18 -20 35 15
18 22 19 37 4z"/>
<path d="M1371 180 c1 -21 3 -27 6 -15 3 11 11 27 19 35 11 14 10 16 -6 16
-16 0 -20 -7 -19 -36z"/>
<path d="M1441 180 c1 -22 3 -27 6 -13 9 48 53 54 53 7 0 -33 18 -31 22 4 2
16 9 27 18 27 9 0 16 -11 18 -27 4 -38 22 -36 22 2 0 33 1 32 -82 34 l-58 1 1
-35z"/>
<path d="M1610 185 c0 -19 5 -35 10 -35 6 0 10 16 10 35 0 19 -4 35 -10 35 -5
0 -10 -16 -10 -35z"/>
<path d="M1661 180 c1 -22 3 -27 6 -13 9 48 53 54 53 7 0 -13 5 -24 10 -24 15
0 12 60 -2 62 -63 7 -68 5 -67 -32z"/>
<path d="M1778 209 c-39 -22 0 -67 45 -53 20 6 20 5 8 -10 -10 -12 -22 -15
-39 -11 -15 4 -21 2 -17 -5 7 -11 35 -13 59 -4 11 4 16 19 16 48 0 38 -2 41
-28 43 -15 1 -35 -3 -44 -8z m51 -13 c14 -17 -9 -39 -33 -30 -19 7 -21 30 -3
37 20 9 24 8 36 -7z"/>
<path d="M1980 183 c0 -18 5 -33 10 -33 6 0 10 11 10 24 0 25 15 36 38 29 6
-3 12 -16 12 -29 0 -13 5 -24 10 -24 14 0 12 46 -3 58 -7 6 -27 10 -45 10 -29
-1 -32 -4 -32 -35z"/>
<path d="M2160 205 c-22 -26 -8 -50 29 -50 44 0 65 29 37 51 -25 18 -50 18
-66 -1z m49 -4 c17 -11 7 -41 -13 -41 -19 0 -29 17 -22 35 6 17 15 18 35 6z"/>
<path d="M2260 184 c0 -19 5 -34 10 -34 6 0 10 10 10 21 0 12 8 27 17 34 15
11 14 13 -10 13 -24 0 -27 -4 -27 -34z"/>
<path d="M2330 183 c0 -40 17 -44 22 -5 2 16 9 27 18 27 9 0 16 -11 18 -27 4
-34 22 -37 22 -4 0 46 40 39 53 -9 3 -11 5 -4 4 15 l-2 35 -67 1 -68 1 0 -34z"/>
<path d="M2505 210 c-5 -9 -1 -10 14 -5 11 3 26 3 33 -2 9 -5 3 -9 -17 -13
-18 -3 -31 -12 -33 -23 -3 -14 4 -17 33 -17 35 0 36 1 33 33 -2 26 -8 33 -30
35 -14 2 -29 -2 -33 -8z m50 -40 c-3 -5 -13 -10 -21 -10 -8 0 -14 5 -14 10 0
6 9 10 21 10 11 0 17 -4 14 -10z"/>
<path d="M2670 185 c0 -19 5 -35 10 -35 6 0 10 16 10 35 0 19 -4 35 -10 35 -5
0 -10 -16 -10 -35z"/>
<path d="M2726 204 c-9 -8 -16 -19 -16 -23 0 -17 30 -32 57 -29 21 2 29 9 31
27 6 39 -42 56 -72 25z m51 -5 c16 -16 5 -39 -17 -39 -25 0 -35 18 -20 35 15
18 22 19 37 4z"/>
<path d="M2830 183 c0 -18 5 -33 11 -33 6 0 8 8 4 19 -6 20 18 46 35 36 5 -3
10 -17 10 -31 0 -13 5 -24 10 -24 15 0 12 60 -2 62 -62 7 -68 5 -68 -29z"/>
<path d="M2993 185 c0 -22 2 -30 4 -17 2 12 2 30 0 40 -3 9 -5 -1 -4 -23z"/>
<path d="M3030 183 c0 -18 5 -33 10 -33 6 0 10 11 10 24 0 24 23 41 41 30 5
-3 9 -16 9 -30 0 -13 5 -24 10 -24 14 0 12 46 -3 58 -7 6 -27 10 -45 10 -29
-1 -32 -4 -32 -35z"/>
<path d="M3222 211 c-8 -4 -12 -19 -10 -32 2 -18 10 -25 31 -27 27 -3 57 12
57 29 0 14 -31 39 -48 39 -9 0 -23 -4 -30 -9z m47 -10 c19 -12 6 -41 -18 -41
-23 0 -34 23 -18 39 13 13 18 13 36 2z"/>
<path d="M3480 183 c0 -18 5 -33 10 -33 6 0 10 11 10 24 0 24 23 41 41 30 5
-3 9 -16 9 -30 0 -13 5 -24 10 -24 14 0 12 46 -3 58 -7 6 -27 10 -45 10 -29
-1 -32 -4 -32 -35z"/>
<path d="M3600 205 c-14 -17 -7 -43 15 -51 25 -10 65 5 65 24 0 39 -55 57 -80
27z m55 -21 c0 -10 -8 -20 -18 -22 -22 -4 -35 27 -16 39 20 12 34 5 34 -17z"/>
<path d="M3690 215 c0 -15 32 -65 41 -65 6 0 13 9 16 20 3 11 9 20 13 20 5 0
12 -9 15 -20 10 -30 32 -24 44 12 14 41 7 48 -12 11 l-15 -28 -11 28 c-13 34
-29 35 -37 2 -3 -14 -10 -25 -14 -25 -4 0 -11 11 -14 25 -5 21 -26 37 -26 20z"/>
<path d="M3906 204 c-9 -8 -16 -19 -16 -23 0 -17 26 -31 55 -30 27 2 27 2 5 6
-43 8 -47 23 -7 23 39 0 45 8 25 28 -17 17 -44 15 -62 -4z m49 -4 c4 -6 -5
-10 -20 -10 -15 0 -24 4 -20 10 3 6 12 10 20 10 8 0 17 -4 20 -10z"/>
<path d="M4119 204 c-18 -22 1 -49 35 -49 14 1 25 -4 23 -10 -3 -5 -16 -9 -31
-8 -14 1 -24 -2 -21 -8 9 -13 49 -11 63 3 7 7 12 28 12 48 0 35 -2 37 -34 38
-20 1 -39 -5 -47 -14z m56 -20 c0 -10 -8 -20 -18 -22 -22 -4 -35 27 -16 39 20
12 34 5 34 -17z"/>
<path d="M4236 204 c-9 -8 -16 -19 -16 -23 0 -17 26 -31 55 -30 27 2 27 2 5 6
-43 8 -47 23 -7 23 39 0 45 8 25 28 -17 17 -44 15 -62 -4z m49 -4 c4 -6 -6
-10 -22 -10 -22 0 -25 2 -13 10 19 12 27 12 35 0z"/>
</g>
</svg>
