<svg version="1.1" id="Layer_1" xmlns="http://www.w3.org/2000/svg" xmlns:xlink="http://www.w3.org/1999/xlink" x="0px" y="0px"
	 width="100%" viewBox="0 0 118 163" enable-background="new 0 0 118 163" xml:space="preserve">
<path fill="#F9F7E7" opacity="1.000000" stroke="none" 
	d="
M64.000000,164.000000 
	C42.685215,164.000000 21.870428,164.000000 1.027820,164.000000 
	C1.027820,109.733597 1.027820,55.467175 1.027820,1.100376 
	C40.231171,1.100376 79.462685,1.100376 118.847099,1.100376 
	C118.847099,55.332985 118.847099,109.666458 118.847099,164.000000 
	C100.800911,164.000000 82.650452,164.000000 64.000000,164.000000 
M72.610062,35.984421 
	C72.752220,35.652176 72.894371,35.319935 73.218452,34.709446 
	C73.218452,34.709446 73.094376,34.401028 73.730988,33.918671 
	C73.803528,32.619865 73.876068,31.321058 74.147873,29.275179 
	C74.082748,28.510756 74.017616,27.746334 74.058487,26.176373 
	C73.735733,24.956726 73.412987,23.737080 73.256805,22.273640 
	C73.256805,22.273640 73.085960,22.032822 73.075180,21.398094 
	C72.743027,21.142801 72.410881,20.887510 72.195778,20.078012 
	C71.663979,19.376741 71.132172,18.675472 70.233856,17.358669 
	C69.846046,17.086267 69.458229,16.813864 68.682098,15.975099 
	C63.033669,12.433500 57.354771,11.818106 51.003300,16.001871 
	C43.207439,22.685917 42.384418,32.353626 49.032825,39.148289 
	C55.773594,46.037357 64.681152,45.154213 72.022995,36.590473 
	C72.022995,36.590473 72.196419,36.130566 72.083214,36.081932 
	C72.083214,36.081932 72.061539,36.203224 72.610062,35.984421 
M61.109623,117.744270 
	C63.390461,118.546165 65.671295,119.348068 68.448692,120.636230 
	C74.413162,122.894035 80.377632,125.151840 86.954353,127.641411 
	C86.824715,125.886024 86.755501,124.948830 86.825333,123.082970 
	C86.825333,97.557610 86.825333,72.032249 86.825333,45.811424 
	C81.403885,48.039642 76.686241,49.978596 71.567123,51.901825 
	C71.279091,51.927288 71.054787,52.060257 70.105133,52.411396 
	C67.057091,53.598766 64.009048,54.786133 60.485500,55.960571 
	C60.485500,55.960571 60.012020,56.006313 59.493603,56.006008 
	C59.320808,56.007900 59.148010,56.009792 58.332249,55.700451 
	C53.898815,54.100201 49.465378,52.499950 44.556049,50.414524 
	C43.032555,49.953316 41.509056,49.492107 39.445347,48.603951 
	C37.402905,47.822731 35.360462,47.041512 33.019226,46.146004 
	C32.883804,47.463505 32.803699,48.242813 32.185745,49.040710 
	C31.788773,49.367294 31.391800,49.693878 30.302843,49.738060 
	C28.293240,48.826450 26.325054,47.785408 24.237499,47.117409 
	C23.841593,46.990719 22.972374,48.343159 21.611198,49.045654 
	C21.374475,49.057720 21.137751,49.069790 20.270002,48.732189 
	C17.788782,48.485470 15.307561,48.238750 12.184069,48.073898 
	C11.972109,48.114544 11.760148,48.155186 10.854925,48.075851 
	C9.077703,47.466282 7.300482,46.856712 5.448846,46.221619 
	C5.448846,73.581673 5.448846,100.251480 5.448846,127.274117 
	C7.470031,126.711647 9.039097,126.274994 11.395525,125.936974 
	C11.921116,125.958427 12.446707,125.979881 13.317411,126.645569 
	C15.793934,126.017143 18.270454,125.388710 21.386969,124.873520 
	C21.599428,124.915894 21.811888,124.958267 22.000530,125.770340 
	C22.811859,126.064392 23.744862,126.773041 24.412403,126.577141 
	C26.696882,125.906693 28.888149,124.918633 31.676361,124.063820 
	C32.050682,124.057243 32.425007,124.050667 32.829247,124.872971 
	C33.676785,125.474464 34.777752,126.773079 35.333221,126.571159 
	C41.933937,124.171562 48.453365,121.548363 55.669643,118.954636 
	C56.827984,118.309319 57.986328,117.664001 59.510368,117.035408 
	C59.510368,117.035408 59.876259,117.047104 60.287201,117.124611 
	C60.287201,117.124611 60.703175,117.138908 61.109623,117.744270 
M98.338150,48.936409 
	C97.978249,48.924793 97.618355,48.913174 97.092308,48.950100 
	C97.092308,48.950100 96.938583,49.029667 97.156334,48.318283 
	C96.954857,47.736835 96.834724,46.695831 96.539581,46.643585 
	C92.744255,45.971775 88.184593,49.613144 88.181854,53.286968 
	C88.165527,75.177734 88.325722,97.070366 88.056549,118.957817 
	C87.999344,123.609421 89.523613,125.748100 94.343697,126.558624 
	C94.895988,126.697548 95.448273,126.836479 96.607674,127.043488 
	C96.751038,126.695732 96.894402,126.347977 97.176155,125.525841 
	C97.176155,125.525841 97.292206,125.045517 97.900063,125.037392 
	C98.304237,125.006653 98.708412,124.975906 99.826721,125.099449 
	C101.186348,125.646393 102.514862,126.469017 103.918343,126.627411 
	C104.652390,126.710258 105.518150,125.626083 106.893143,125.053696 
	C107.271797,125.031998 107.650452,125.010300 108.612267,125.339355 
	C110.408821,126.063156 112.205376,126.786964 114.437576,127.686287 
	C114.437576,100.260689 114.437576,73.461510 114.437576,45.811024 
	C111.913223,47.017933 109.899269,47.980816 107.496300,48.776306 
	C107.158463,48.521046 106.820625,48.265785 106.179794,47.257702 
	C104.776512,47.484543 103.373230,47.711384 101.397644,47.934753 
	C100.910118,48.198704 100.422600,48.462658 99.394386,48.787609 
	C99.222221,48.844658 99.050056,48.901703 98.338150,48.936409 
z"/>
<path fill="#F0591F" opacity="1.000000" stroke="none" 
	d="
M70.894203,52.300732 
	C71.054787,52.060257 71.279091,51.927288 71.988052,52.165024 
	C76.448128,51.486786 80.487267,50.545349 85.019196,49.489056 
	C85.019196,74.565033 85.019196,99.256630 84.724747,124.074677 
	C82.927162,123.786499 81.373138,123.500999 79.930626,122.932541 
	C75.924789,121.353943 71.965340,119.657639 67.623444,117.961426 
	C65.153130,117.264526 63.046932,116.614037 60.862442,115.502518 
	C60.836094,95.706314 60.888046,76.371132 61.330383,57.025570 
	C64.778587,55.443707 67.836395,53.872219 70.894203,52.300732 
z"/>
<path fill="#F0591F" opacity="1.000000" stroke="none" 
	d="
M39.985561,49.030899 
	C41.509056,49.492107 43.032555,49.953316 44.843414,51.016785 
	C47.134506,52.613392 49.069309,53.795273 51.156540,54.562431 
	C55.296593,56.084110 57.286407,58.293613 57.154350,63.293358 
	C56.734184,79.201202 57.078983,95.127991 56.909790,111.045135 
	C56.885227,113.356140 55.666676,115.654442 54.602364,117.965622 
	C47.984100,120.079193 41.764099,122.185768 35.243950,124.393997 
	C35.243950,99.385124 35.243950,74.673943 35.243950,50.253963 
	C36.945759,49.814995 38.465660,49.422947 39.985561,49.030899 
z"/>
<path fill="#F47E14" opacity="1.000000" stroke="none" 
	d="
M22.321543,49.013119 
	C22.972374,48.343159 23.841593,46.990719 24.237499,47.117409 
	C26.325054,47.785408 28.293240,48.826450 30.691198,50.344929 
	C31.091358,75.318436 31.103163,99.685074 31.114967,124.051712 
	C28.888149,124.918633 26.696882,125.906693 24.412403,126.577141 
	C23.744862,126.773041 22.811859,126.064392 22.304459,125.087830 
	C22.683256,99.731903 22.760906,75.058495 22.811522,50.385033 
	C22.812460,49.928066 22.492027,49.470440 22.321543,49.013119 
z"/>
<path fill="#EE4021" opacity="1.000000" stroke="none" 
	d="
M51.628029,15.797523 
	C57.354771,11.818106 63.033669,12.433500 69.027512,16.592365 
	C69.782074,17.464489 70.191223,17.719343 70.600372,17.974201 
	C71.132172,18.675472 71.663979,19.376741 72.224770,20.643139 
	C72.531158,21.483120 72.808563,21.757971 73.085960,22.032822 
	C73.085960,22.032822 73.256805,22.273640 73.149063,22.798340 
	C73.345039,24.542664 73.648766,25.762287 73.952492,26.981911 
	C74.017616,27.746334 74.082748,28.510756 73.773270,29.917347 
	C73.297234,31.840019 73.195808,33.120525 73.094376,34.401028 
	C73.094376,34.401028 73.218452,34.709446 72.891678,34.981934 
	C72.397110,35.570694 72.229324,35.886959 72.061539,36.203224 
	C72.061539,36.203224 72.083214,36.081932 71.836433,36.058418 
	C71.385658,36.020729 71.181664,36.006557 70.622269,36.038689 
	C69.958511,36.199036 69.602631,36.248814 69.348770,36.436550 
	C63.390446,40.842915 55.607132,41.265575 51.767914,37.571518 
	C46.068100,32.087223 45.501377,25.008083 51.468113,18.881672 
	C52.007908,18.327431 51.597282,16.847546 51.628029,15.797523 
z"/>
<path fill="#FFCF15" opacity="1.000000" stroke="none" 
	d="
M107.885315,48.943695 
	C109.899269,47.980816 111.913223,47.017933 114.437576,45.811024 
	C114.437576,73.461510 114.437576,100.260689 114.437576,127.686287 
	C112.205376,126.786964 110.408821,126.063156 108.302391,124.696510 
	C107.956779,99.017006 107.921051,73.980354 107.885315,48.943695 
z"/>
<path fill="#FECF12" opacity="1.000000" stroke="none" 
	d="
M10.608162,125.838348 
	C9.039097,126.274994 7.470031,126.711647 5.448846,127.274117 
	C5.448846,100.251480 5.448846,73.581673 5.448846,46.221619 
	C7.300482,46.856712 9.077703,47.466282 11.314210,48.578773 
	C11.820496,73.314857 11.888582,97.548042 11.858418,121.781113 
	C11.856733,123.134041 11.043606,124.485962 10.608162,125.838348 
z"/>
<path fill="#F4801C" opacity="1.000000" stroke="none" 
	d="
M96.000565,126.975410 
	C95.448273,126.836479 94.895988,126.697548 94.088608,125.982758 
	C90.304642,123.550484 89.843063,120.541275 89.875374,116.811127 
	C90.050888,96.547905 89.950539,76.282356 89.963951,56.017624 
	C89.967834,50.146214 90.754402,49.387196 96.938583,49.029667 
	C96.938583,49.029667 97.092308,48.950100 97.064987,49.390106 
	C97.017509,60.460915 96.947807,71.091911 96.989326,81.722481 
	C97.045731,96.163666 97.187210,110.604523 97.292206,125.045517 
	C97.292206,125.045517 97.176155,125.525841 96.889183,125.873138 
	C96.328743,126.413979 96.128189,126.665634 96.000565,126.975410 
z"/>
<path fill="#F9A619" opacity="1.000000" stroke="none" 
	d="
M99.935081,48.726608 
	C100.422600,48.462658 100.910118,48.198704 101.917755,48.253922 
	C102.958244,50.217598 103.924561,51.860165 103.931740,53.506916 
	C104.031036,76.285172 104.001427,99.063995 103.986275,121.842674 
	C103.985764,122.613190 103.806122,123.383583 103.703171,124.208565 
	C102.276909,124.129295 101.126488,124.065361 99.982826,123.661316 
	C99.649193,122.542114 99.308807,121.763008 98.885689,120.522156 
	C98.869484,96.706665 98.936020,73.352936 99.230850,49.848541 
	C99.617790,49.374119 99.776436,49.050365 99.935081,48.726608 
z"/>
<path fill="#EE490C" opacity="1.000000" stroke="none" 
	d="
M39.715454,48.817425 
	C38.465660,49.422947 36.945759,49.814995 35.243950,50.253963 
	C35.243950,74.673943 35.243950,99.385124 35.243950,124.393997 
	C41.764099,122.185768 47.984100,120.079193 54.600422,118.222168 
	C54.995869,118.642418 54.994991,118.813118 54.994118,118.983818 
	C48.453365,121.548363 41.933937,124.171562 35.333221,126.571159 
	C34.777752,126.773079 33.676785,125.474464 32.938202,124.001099 
	C33.062927,107.529373 33.124470,91.929382 33.076992,76.329720 
	C33.049286,67.226913 32.847221,58.124638 32.723598,49.022121 
	C32.803699,48.242813 32.883804,47.463505 33.019226,46.146004 
	C35.360462,47.041512 37.402905,47.822731 39.715454,48.817425 
z"/>
<path fill="#F8CEA2" opacity="1.000000" stroke="none" 
	d="
M21.966370,49.029388 
	C22.492027,49.470440 22.812460,49.928066 22.811522,50.385033 
	C22.760906,75.058495 22.683256,99.731903 22.316366,124.702972 
	C21.811888,124.958267 21.599428,124.915894 21.085400,124.527527 
	C20.783998,123.797646 20.784164,123.413757 20.833595,122.582939 
	C20.801395,98.566612 20.719933,74.997215 20.728214,51.144405 
	C20.845648,50.267944 20.873339,49.674900 20.901028,49.081856 
	C21.137751,49.069790 21.374475,49.057720 21.966370,49.029388 
z"/>
<path fill="#F05A26" opacity="1.000000" stroke="none" 
	d="
M85.019196,123.948242 
	C85.019196,99.256630 85.019196,74.565033 85.019196,49.489056 
	C80.487267,50.545349 76.448128,51.486786 72.188797,52.172886 
	C76.686241,49.978596 81.403885,48.039642 86.825333,45.811424 
	C86.825333,72.032249 86.825333,97.557610 86.477661,123.542801 
	C85.759727,123.984505 85.389458,123.966370 85.019196,123.948242 
z"/>
<path fill="#F58F2E" opacity="1.000000" stroke="none" 
	d="
M97.047455,48.673973 
	C90.754402,49.387196 89.967834,50.146214 89.963951,56.017624 
	C89.950539,76.282356 90.050888,96.547905 89.875374,116.811127 
	C89.843063,120.541275 90.304642,123.550484 93.884293,125.777679 
	C89.523613,125.748100 87.999344,123.609421 88.056549,118.957817 
	C88.325722,97.070366 88.165527,75.177734 88.181854,53.286968 
	C88.184593,49.613144 92.744255,45.971775 96.539581,46.643585 
	C96.834724,46.695831 96.954857,47.736835 97.047455,48.673973 
z"/>
<path fill="#F89B0A" opacity="1.000000" stroke="none" 
	d="
M99.976067,124.001419 
	C101.126488,124.065361 102.276909,124.129295 103.703171,124.208565 
	C103.806122,123.383583 103.985764,122.613190 103.986275,121.842674 
	C104.001427,99.063995 104.031036,76.285172 103.931740,53.506916 
	C103.924561,51.860165 102.958244,50.217598 102.203911,48.255653 
	C103.373230,47.711384 104.776512,47.484543 106.155121,48.072495 
	C106.085144,62.170589 105.981041,75.454033 106.011894,88.737160 
	C106.040016,100.847946 106.214462,112.958382 106.324417,125.068977 
	C105.518150,125.626083 104.652390,126.710258 103.918343,126.627411 
	C102.514862,126.469017 101.186348,125.646393 99.452995,124.784126 
	C99.079269,124.468803 99.145836,123.995865 99.353409,123.995590 
	C99.560974,123.995323 99.976067,124.001419 99.976067,124.001419 
z"/>
<path fill="#F8A006" opacity="1.000000" stroke="none" 
	d="
M20.585516,48.907021 
	C20.873339,49.674900 20.845648,50.267944 20.373667,50.954903 
	C18.631556,50.442814 17.333736,49.836815 15.992374,49.210484 
	C15.992374,72.788460 16.025846,96.016075 15.901150,119.242844 
	C15.894365,120.506538 14.565863,121.763138 13.776901,122.557709 
	C13.689334,99.333397 13.697750,76.574364 13.629341,53.815563 
	C13.623505,51.873600 13.106096,49.933170 12.826340,47.992031 
	C15.307561,48.238750 17.788782,48.485470 20.585516,48.907021 
z"/>
<path fill="#ED3C1E" opacity="1.000000" stroke="none" 
	d="
M51.315662,15.899697 
	C51.597282,16.847546 52.007908,18.327431 51.468113,18.881672 
	C45.501377,25.008083 46.068100,32.087223 51.767914,37.571518 
	C55.607132,41.265575 63.390446,40.842915 69.348770,36.436550 
	C69.602631,36.248814 69.958511,36.199036 70.692696,36.218090 
	C71.257286,36.571564 71.433228,36.756588 71.646347,36.906265 
	C64.681152,45.154213 55.773594,46.037357 49.032825,39.148289 
	C42.384418,32.353626 43.207439,22.685917 51.315662,15.899697 
z"/>
<path fill="#F9F3D9" opacity="1.000000" stroke="none" 
	d="
M12.505204,48.032967 
	C13.106096,49.933170 13.623505,51.873600 13.629341,53.815563 
	C13.697750,76.574364 13.689334,99.333397 13.691156,122.862167 
	C13.699445,124.051590 13.717772,124.471214 13.581137,125.056000 
	C13.323658,125.509583 13.172366,125.769646 12.972298,126.001335 
	C12.446707,125.979881 11.921116,125.958427 11.001843,125.887665 
	C11.043606,124.485962 11.856733,123.134041 11.858418,121.781113 
	C11.888582,97.548042 11.820496,73.314857 11.660841,48.638763 
	C11.760148,48.155186 11.972109,48.114544 12.505204,48.032967 
z"/>
<path fill="#F05215" opacity="1.000000" stroke="none" 
	d="
M55.331879,118.969223 
	C54.994991,118.813118 54.995869,118.642418 54.998688,118.215179 
	C55.666676,115.654442 56.885227,113.356140 56.909790,111.045135 
	C57.078983,95.127991 56.734184,79.201202 57.154350,63.293358 
	C57.286407,58.293613 55.296593,56.084110 51.156540,54.562431 
	C49.069309,53.795273 47.134506,52.613392 45.081360,51.259369 
	C49.465378,52.499950 53.898815,54.100201 58.658638,56.323925 
	C59.038242,76.971161 59.091457,96.994926 59.144672,117.018692 
	C57.986328,117.664001 56.827984,118.309319 55.331879,118.969223 
z"/>
<path fill="#FAEDBA" opacity="1.000000" stroke="none" 
	d="
M106.608780,125.061340 
	C106.214462,112.958382 106.040016,100.847946 106.011894,88.737160 
	C105.981041,75.454033 106.085144,62.170589 106.306618,48.448906 
	C106.820625,48.265785 107.158463,48.521046 107.690811,48.860001 
	C107.921051,73.980354 107.956779,99.017006 108.010811,124.521133 
	C107.650452,125.010300 107.271797,125.031998 106.608780,125.061340 
z"/>
<path fill="#F9E9CB" opacity="1.000000" stroke="none" 
	d="
M99.145836,123.995865 
	C99.145836,123.995865 99.079269,124.468803 99.095932,124.706985 
	C98.708412,124.975906 98.304237,125.006653 97.596130,125.041458 
	C97.187210,110.604523 97.045731,96.163666 96.989326,81.722481 
	C96.947807,71.091911 97.017509,60.460915 97.148056,49.365833 
	C97.618355,48.913174 97.978249,48.924793 98.623276,49.209602 
	C98.939781,49.654938 98.971169,49.827072 99.002548,49.999207 
	C98.936020,73.352936 98.869484,96.706665 98.827560,120.901009 
	C98.950058,122.493034 99.047951,123.244453 99.145836,123.995865 
z"/>
<path fill="#F9DBBE" opacity="1.000000" stroke="none" 
	d="
M32.454674,49.031418 
	C32.847221,58.124638 33.049286,67.226913 33.076992,76.329720 
	C33.124470,91.929382 33.062927,107.529373 32.923241,123.586662 
	C32.425007,124.050667 32.050682,124.057243 31.395664,124.057770 
	C31.103163,99.685074 31.091358,75.318436 31.037189,50.486130 
	C31.391800,49.693878 31.788773,49.367294 32.454674,49.031418 
z"/>
<path fill="#F9E4D4" opacity="1.000000" stroke="none" 
	d="
M59.327522,117.027054 
	C59.091457,96.994926 59.038242,76.971161 58.980122,56.479542 
	C59.148010,56.009792 59.320808,56.007900 59.800934,56.219910 
	C60.204750,56.727711 60.390610,56.945267 60.740646,57.107853 
	C60.815453,57.129230 60.939995,57.035950 60.939995,57.035950 
	C60.888046,76.371132 60.836094,95.706314 60.797905,115.457947 
	C60.811665,115.874405 60.658749,115.909569 60.475002,116.056229 
	C60.111683,116.464012 59.973351,116.745422 59.876259,117.047104 
	C59.876259,117.047104 59.510368,117.035408 59.327522,117.027054 
z"/>
<path fill="#F0561B" opacity="1.000000" stroke="none" 
	d="
M84.724747,124.074684 
	C85.389458,123.966370 85.759727,123.984505 86.408142,124.007133 
	C86.755501,124.948830 86.824715,125.886024 86.954353,127.641411 
	C80.377632,125.151840 74.413162,122.894035 68.218918,120.036331 
	C67.988617,118.960236 67.988083,118.484032 67.987556,118.007828 
	C71.965340,119.657639 75.924789,121.353943 79.930626,122.932541 
	C81.373138,123.500999 82.927162,123.786499 84.724747,124.074684 
z"/>
<path fill="#EE4C0A" opacity="1.000000" stroke="none" 
	d="
M70.499664,52.356064 
	C67.836395,53.872219 64.778587,55.443707 61.330383,57.025570 
	C60.939995,57.035950 60.815453,57.129230 60.856682,56.840736 
	C60.918941,56.359329 60.939976,56.166412 60.961010,55.973499 
	C64.009048,54.786133 67.057091,53.598766 70.499664,52.356064 
z"/>
<path fill="#F8A006" opacity="1.000000" stroke="none" 
	d="
M13.144855,126.323456 
	C13.172366,125.769646 13.323658,125.509583 13.965813,125.078720 
	C16.598412,124.300804 18.691372,123.665337 20.784330,123.029869 
	C20.784164,123.413757 20.783998,123.797646 20.765404,124.470909 
	C18.270454,125.388710 15.793934,126.017143 13.144855,126.323456 
z"/>
<path fill="#EE4C0A" opacity="1.000000" stroke="none" 
	d="
M67.623444,117.961426 
	C67.988083,118.484032 67.988617,118.960236 67.970642,119.793198 
	C65.671295,119.348068 63.390461,118.546165 60.959755,117.131859 
	C60.759506,116.316154 60.709129,116.112862 60.658749,115.909569 
	C60.658749,115.909569 60.811665,115.874405 60.876198,115.918976 
	C63.046932,116.614037 65.153130,117.264526 67.623444,117.961426 
z"/>
<path fill="#EB2105" opacity="1.000000" stroke="none" 
	d="
M74.005493,26.579142 
	C73.648766,25.762287 73.345039,24.542664 73.065773,22.920235 
	C73.412987,23.737080 73.735733,24.956726 74.005493,26.579142 
z"/>
<path fill="#EB2105" opacity="1.000000" stroke="none" 
	d="
M73.412682,34.159851 
	C73.195808,33.120525 73.297234,31.840019 73.673630,30.290882 
	C73.876068,31.321058 73.803528,32.619865 73.412682,34.159851 
z"/>
<path fill="#F58F2E" opacity="1.000000" stroke="none" 
	d="
M96.304123,127.009445 
	C96.128189,126.665634 96.328743,126.413979 96.819992,126.110329 
	C96.894402,126.347977 96.751038,126.695732 96.304123,127.009445 
z"/>
<path fill="#EB2105" opacity="1.000000" stroke="none" 
	d="
M70.417114,17.666435 
	C70.191223,17.719343 69.782074,17.464489 69.221672,16.875546 
	C69.458229,16.813864 69.846046,17.086267 70.417114,17.666435 
z"/>
<path fill="#EB2105" opacity="1.000000" stroke="none" 
	d="
M71.834671,36.748367 
	C71.433228,36.756588 71.257286,36.571564 71.048096,36.171791 
	C71.181664,36.006557 71.385658,36.020729 71.893036,36.082733 
	C72.196419,36.130566 72.022995,36.590473 71.834671,36.748367 
z"/>
<path fill="#F9B09E" opacity="1.000000" stroke="none" 
	d="
M60.475002,116.056229 
	C60.709129,116.112862 60.759506,116.316154 60.756531,116.829178 
	C60.703175,117.138908 60.287201,117.124611 60.081730,117.085861 
	C59.973351,116.745422 60.111683,116.464012 60.475002,116.056229 
z"/>
<path fill="#F9B09E" opacity="1.000000" stroke="none" 
	d="
M60.723255,55.967033 
	C60.939976,56.166412 60.918941,56.359329 60.781876,56.819359 
	C60.390610,56.945267 60.204750,56.727711 60.060143,56.220062 
	C60.012020,56.006313 60.485500,55.960571 60.723255,55.967033 
z"/>
<path fill="#EB2105" opacity="1.000000" stroke="none" 
	d="
M72.335800,36.093822 
	C72.229324,35.886959 72.397110,35.570694 72.800713,35.121056 
	C72.894371,35.319935 72.752220,35.652176 72.335800,36.093822 
z"/>
<path fill="#F89D00" opacity="1.000000" stroke="none" 
	d="
M99.230850,49.848541 
	C98.971169,49.827072 98.939781,49.654938 98.893143,49.220776 
	C99.050056,48.901703 99.222221,48.844658 99.664734,48.757111 
	C99.776436,49.050365 99.617790,49.374119 99.230850,49.848541 
z"/>
<path fill="#EB2105" opacity="1.000000" stroke="none" 
	d="
M73.080566,21.715458 
	C72.808563,21.757971 72.531158,21.483120 72.166245,20.920242 
	C72.410881,20.887510 72.743027,21.142801 73.080566,21.715458 
z"/>
<path fill="#F89D00" opacity="1.000000" stroke="none" 
	d="
M99.353409,123.995590 
	C99.047951,123.244453 98.950058,122.493034 98.910294,121.362762 
	C99.308807,121.763008 99.649193,122.542114 99.982826,123.661316 
	C99.976067,124.001419 99.560974,123.995323 99.353409,123.995590 
z"/>
<path fill="#F9A515" opacity="1.000000" stroke="none" 
	d="
M20.833595,122.582939 
	C18.691372,123.665337 16.598412,124.300804 14.120777,124.913559 
	C13.717772,124.471214 13.699445,124.051590 13.766861,123.327499 
	C14.565863,121.763138 15.894365,120.506538 15.901150,119.242844 
	C16.025846,96.016075 15.992374,72.788460 15.992374,49.210484 
	C17.333736,49.836815 18.631556,50.442814 20.283922,51.238319 
	C20.719933,74.997215 20.801395,98.566612 20.833595,122.582939 
z"/>
</svg>